<svg viewBox="0 0 370 265" fill="none" xmlns="http://www.w3.org/2000/svg">
<mask id="path-1-inside-1" fill="white">
<path fill-rule="evenodd" clip-rule="evenodd" d="M192.924 150.075L210.996 138.737L179.497 120.551L225.113 127.123L200.816 100.742L203.118 97.5934L272.198 137.477C281.172 121.935 301.106 116.645 316.723 125.662C332.34 134.678 337.726 154.587 328.753 170.129C323.649 178.969 314.999 184.493 305.614 185.953C309.041 194.811 308.583 205.064 303.479 213.904C294.506 229.446 274.572 234.736 258.955 225.719C243.338 216.703 237.952 196.794 246.925 181.252L192.924 150.075Z"/>
</mask>
<path fill-rule="evenodd" clip-rule="evenodd" d="M192.924 150.075L210.996 138.737L179.497 120.551L225.113 127.123L200.816 100.742L203.118 97.5934L272.198 137.477C281.172 121.935 301.106 116.645 316.723 125.662C332.34 134.678 337.726 154.587 328.753 170.129C323.649 178.969 314.999 184.493 305.614 185.953C309.041 194.811 308.583 205.064 303.479 213.904C294.506 229.446 274.572 234.736 258.955 225.719C243.338 216.703 237.952 196.794 246.925 181.252L192.924 150.075Z" fill="#605F5F"/>
<path d="M251.684 179.522L251.554 179.039L251.533 179.045L251.513 179.052L251.684 179.522ZM254.194 178.501L253.973 178.053L254.194 178.501ZM273.079 142.464L272.587 142.551L272.599 142.621L272.631 142.685L273.079 142.464ZM301.293 183.458L301.543 183.025L301.44 182.966L301.323 182.959L301.293 183.458ZM247.096 181.722L251.854 179.992L251.513 179.052L246.754 180.783L247.096 181.722ZM251.813 180.005C252.841 179.729 253.65 179.328 254.416 178.949L253.973 178.053C253.202 178.434 252.475 178.792 251.554 179.039L251.813 180.005ZM254.416 178.949C255.187 178.568 255.914 178.21 256.835 177.963C257.751 177.718 258.877 177.579 260.422 177.672L260.482 176.673C258.843 176.575 257.608 176.721 256.576 176.997C255.548 177.273 254.739 177.674 253.973 178.053L254.416 178.949ZM271.706 137.564L272.587 142.551L273.572 142.377L272.691 137.39L271.706 137.564ZM272.631 142.685C273.203 143.842 274.043 145.543 274.61 147.181C274.893 148 275.101 148.783 275.176 149.459C275.253 150.148 275.184 150.655 274.996 150.982L275.862 151.482C276.208 150.882 276.256 150.118 276.17 149.349C276.083 148.568 275.85 147.707 275.555 146.854C274.964 145.147 274.095 143.39 273.527 142.242L272.631 142.685ZM305.864 185.52L301.543 183.025L301.043 183.891L305.364 186.386L305.864 185.52ZM301.323 182.959C296.551 182.673 291.881 182.388 286.433 179.243L285.933 180.109C291.602 183.382 296.483 183.67 301.263 183.957L301.323 182.959ZM192.924 150.075L192.393 149.228L190.986 150.111L192.424 150.941L192.924 150.075ZM210.996 138.737L211.528 139.584L212.935 138.702L211.496 137.871L210.996 138.737ZM179.497 120.551L179.639 119.561L178.997 121.417L179.497 120.551ZM225.113 127.123L224.971 128.113L227.754 128.514L225.849 126.446L225.113 127.123ZM200.816 100.742L200.008 100.152L199.523 100.815L200.08 101.42L200.816 100.742ZM203.118 97.5934L203.618 96.7274L202.84 96.2785L202.31 97.0032L203.118 97.5934ZM272.198 137.477L271.698 138.343L272.565 138.843L273.065 137.977L272.198 137.477ZM305.614 185.953L305.46 184.965L304.233 185.156L304.681 186.314L305.614 185.953ZM246.925 181.252L247.791 181.752L248.291 180.886L247.425 180.386L246.925 181.252ZM193.455 150.922L211.528 139.584L210.465 137.89L192.393 149.228L193.455 150.922ZM211.496 137.871L179.997 119.685L178.997 121.417L210.496 139.603L211.496 137.871ZM179.354 121.541L224.971 128.113L225.256 126.133L179.639 119.561L179.354 121.541ZM225.849 126.446L201.551 100.065L200.08 101.42L224.378 127.801L225.849 126.446ZM201.623 101.332L203.925 98.1836L202.31 97.0032L200.008 100.152L201.623 101.332ZM272.698 136.611L203.618 96.7274L202.618 98.4594L271.698 138.343L272.698 136.611ZM317.223 124.796C301.132 115.506 280.584 120.953 271.332 136.977L273.065 137.977C281.759 122.918 301.08 117.785 316.223 126.528L317.223 124.796ZM329.619 170.629C338.87 154.605 333.314 134.086 317.223 124.796L316.223 126.528C331.366 135.271 336.581 154.569 327.887 169.629L329.619 170.629ZM305.767 186.941C315.437 185.436 324.357 179.743 329.619 170.629L327.887 169.629C322.941 178.195 314.56 183.549 305.46 184.965L305.767 186.941ZM304.345 214.404C309.607 205.29 310.078 194.719 306.546 185.592L304.681 186.314C308.005 194.902 307.559 204.838 302.613 213.404L304.345 214.404ZM258.455 226.585C274.546 235.876 295.094 230.428 304.345 214.404L302.613 213.404C293.918 228.464 274.597 233.596 259.455 224.853L258.455 226.585ZM246.059 180.752C236.807 196.777 242.363 217.295 258.455 226.585L259.455 224.853C244.312 216.111 239.096 196.812 247.791 181.752L246.059 180.752ZM192.424 150.941L246.425 182.118L247.425 180.386L193.424 149.209L192.424 150.941Z" fill="#474747" mask="url(#path-1-inside-1)"/>
<mask id="path-3-inside-2" fill="white">
<path fill-rule="evenodd" clip-rule="evenodd" d="M150.802 105.481L151.585 126.801L183.085 108.615L154.585 144.834L189.58 136.982L191.156 140.55L122.075 180.434C131.048 195.975 125.662 215.884 110.045 224.9C94.4282 233.917 74.494 228.627 65.5209 213.085C60.4169 204.245 59.9587 193.992 63.3864 185.134C54.0015 183.674 45.3512 178.15 40.2473 169.31C31.2742 153.768 36.6601 133.86 52.2771 124.843C67.8941 115.827 87.8283 121.116 96.8015 136.658L150.802 105.481Z"/>
</mask>
<path fill-rule="evenodd" clip-rule="evenodd" d="M150.802 105.481L151.585 126.801L183.085 108.615L154.585 144.834L189.58 136.982L191.156 140.55L122.075 180.434C131.048 195.975 125.662 215.884 110.045 224.9C94.4282 233.917 74.494 228.627 65.5209 213.085C60.4169 204.245 59.9587 193.992 63.3864 185.134C54.0015 183.674 45.3512 178.15 40.2473 169.31C31.2742 153.768 36.6601 133.86 52.2771 124.843C67.8941 115.827 87.8283 121.116 96.8015 136.658L150.802 105.481Z" fill="#605F5F"/>
<path d="M95.9208 141.645L96.4038 141.774L96.4094 141.753L96.4132 141.732L95.9208 141.645ZM95.5494 144.33L96.0484 144.362L96.0484 144.362L95.5494 144.33ZM117.316 178.703L117.487 178.233L117.42 178.209L117.349 178.204L117.316 178.703ZM67.7074 182.639L67.9574 183.072L68.0596 183.013L68.1246 182.915L67.7074 182.639ZM96.3091 136.571L95.4284 141.558L96.4132 141.732L97.2939 136.745L96.3091 136.571ZM95.4378 141.515C95.1624 142.543 95.1055 143.444 95.0505 144.298L96.0484 144.362C96.1037 143.504 96.1571 142.695 96.4038 141.774L95.4378 141.515ZM95.0505 144.298C94.9952 145.155 94.9418 145.965 94.6951 146.885C94.4496 147.801 94.007 148.846 93.1541 150.137L93.9887 150.688C94.8932 149.318 95.3844 148.176 95.661 147.144C95.9364 146.116 95.9934 145.215 96.0484 144.362L95.0505 144.298ZM122.246 179.964L117.487 178.233L117.146 179.173L121.904 180.903L122.246 179.964ZM117.349 178.204C116.061 178.121 114.168 177.998 112.466 177.67C111.615 177.506 110.833 177.294 110.209 177.021C109.574 176.743 109.17 176.43 108.981 176.104L108.115 176.604C108.462 177.204 109.1 177.627 109.808 177.937C110.528 178.252 111.39 178.481 112.277 178.652C114.05 178.994 116.006 179.12 117.284 179.202L117.349 178.204ZM63.6364 185.567L67.9574 183.072L67.4574 182.206L63.1364 184.701L63.6364 185.567ZM68.1246 182.915C70.7583 178.926 73.3398 175.024 78.7883 171.878L78.2883 171.012C72.6192 174.285 69.9286 178.368 67.2901 182.364L68.1246 182.915ZM150.802 105.481L151.802 105.444L151.741 103.785L150.302 104.615L150.802 105.481ZM151.585 126.801L150.586 126.838L150.647 128.497L152.085 127.667L151.585 126.801ZM183.085 108.615L183.87 109.233L182.585 107.749L183.085 108.615ZM154.585 144.834L153.799 144.215L152.06 146.425L154.803 145.809L154.585 144.834ZM189.58 136.982L190.495 136.578L190.163 135.826L189.361 136.006L189.58 136.982ZM191.156 140.55L191.656 141.416L192.433 140.967L192.071 140.146L191.156 140.55ZM122.075 180.434L121.575 179.568L120.709 180.068L121.209 180.934L122.075 180.434ZM63.3864 185.134L64.319 185.495L64.7671 184.337L63.5401 184.146L63.3864 185.134ZM96.8015 136.658L95.9355 137.158L96.4355 138.024L97.3015 137.524L96.8015 136.658ZM149.803 105.518L150.586 126.838L152.584 126.764L151.802 105.444L149.803 105.518ZM152.085 127.667L183.585 109.481L182.585 107.749L151.085 125.935L152.085 127.667ZM182.299 107.996L153.799 144.215L155.37 145.452L183.87 109.233L182.299 107.996ZM154.803 145.809L189.799 137.957L189.361 136.006L154.366 143.858L154.803 145.809ZM188.665 137.386L190.241 140.954L192.071 140.146L190.495 136.578L188.665 137.386ZM122.575 181.3L191.656 141.416L190.656 139.684L121.575 179.568L122.575 181.3ZM110.545 225.766C126.637 216.476 132.193 195.958 122.941 179.934L121.209 180.934C129.904 195.993 124.688 215.292 109.545 224.034L110.545 225.766ZM64.6548 213.585C73.9064 229.609 94.4539 235.057 110.545 225.766L109.545 224.034C94.4026 232.777 75.0816 227.645 66.3869 212.585L64.6548 213.585ZM62.4538 184.773C58.9219 193.9 59.3927 204.471 64.6548 213.585L66.3869 212.585C61.4412 204.019 60.9954 194.084 64.319 185.495L62.4538 184.773ZM39.3813 169.81C44.6434 178.924 53.5626 184.617 63.2326 186.122L63.5401 184.146C54.4404 182.73 46.059 177.376 41.1133 168.81L39.3813 169.81ZM51.7771 123.977C35.6857 133.267 30.1297 153.786 39.3813 169.81L41.1133 168.81C32.4186 153.75 37.6344 134.452 52.7771 125.709L51.7771 123.977ZM97.6675 136.158C88.416 120.134 67.8684 114.687 51.7771 123.977L52.7771 125.709C67.9197 116.966 87.2407 122.099 95.9355 137.158L97.6675 136.158ZM150.302 104.615L96.3015 135.792L97.3015 137.524L151.302 106.347L150.302 104.615Z" fill="#474747" mask="url(#path-3-inside-2)"/>
<path d="M140.278 33.2235L123.791 42.7426L150.749 77.6506L158.601 73.1177L140.278 33.2235Z" fill="#605F5F" fill-opacity="0.85"/>
<path d="M232.787 33.2235L249.275 42.7426L222.316 77.6506L214.465 73.1177L232.787 33.2235Z" fill="#605F5F" fill-opacity="0.85"/>
<path d="M177.014 21L196.052 21L190.159 64.7105L181.093 64.7105L177.014 21Z" fill="#605F5F" fill-opacity="0.85"/>
</svg>
