<svg viewBox="0 0 75 75" fill="none" xmlns="http://www.w3.org/2000/svg">
<path fill-rule="evenodd" clip-rule="evenodd" d="M54.9749 11.2202L62.0674 4.12765C58.1359 3.11765 53.7877 4.15175 50.7095 7.22994C47.8659 10.0735 46.7667 14.0009 47.4119 17.6824L17.6825 47.4118C14.001 46.7666 10.0737 47.8658 7.23012 50.7094C4.15194 53.7876 3.11784 58.1358 4.12783 62.0673L10.3947 55.8004L18.9255 64.3311L12.6586 70.598C16.5901 71.608 20.9383 70.5739 24.0165 67.4957C27.318 64.1942 28.2681 59.4316 26.8666 55.2892L55.2894 26.8664C59.4318 28.2679 64.1943 27.3178 67.4959 24.0163C70.574 20.9381 71.6081 16.5899 70.5982 12.6584L63.5056 19.751L54.9749 11.2202Z" fill="#00F0FF"/>
<path d="M45.2638 40.3811L20.9655 16.0829L15.9246 21.1238L40.2229 45.4221L45.2638 40.3811Z" fill="#F25EA5"/>
<path d="M69.632 64.618C70.7858 63.4642 70.5849 61.3925 69.1831 59.9908L49.894 40.7016C48.4923 39.2999 46.4206 39.099 45.2668 40.2528L40.2528 45.2668C39.0989 46.4206 39.2999 48.4923 40.7016 49.894L59.9908 69.1832C61.3925 70.5849 63.4642 70.7858 64.618 69.632L69.632 64.618Z" fill="#F25EA5"/>
<path d="M23.0805 14.7238L11.094 6.40605L6.20222 11.2978L14.7238 23.0805L23.0805 14.7238Z" fill="#F25EA5"/>
</svg>
