<svg viewBox="0 0 93 50" fill="none" xmlns="http://www.w3.org/2000/svg">
<path d="M21.393 15.627C21.8799 14.7837 23.524 16.0964 23.9157 16.4272C23.9727 16.4754 24.0242 16.5271 24.0765 16.5802C24.4059 16.9141 25.7648 18.1752 27.5 18.1752C29.5 18.1752 29.9568 18.1631 30.2834 18.1752C31.1355 18.207 33.2161 18.2846 37.497 18.4439C42.172 18.6179 48.6488 23.015 51.3615 25.0129C52.1182 25.5701 52.3411 26.5838 51.9254 27.4265L42.6691 46.1899C42.156 47.23 40.8707 47.6198 39.8663 47.0399L14.1469 32.1908C13.1871 31.6367 12.8583 30.4095 13.4124 29.4497L21.393 15.627Z" fill="#FF61AD"/>
<path d="M34.8451 35.0285C33.4054 34.1974 32.9122 32.3565 33.7433 30.9169C34.5745 29.4773 36.4154 28.984 37.855 29.8152L53.4951 38.845C54.9347 39.6762 55.428 41.517 54.5968 42.9566C53.7656 44.3963 51.9248 44.8895 50.4851 44.0583L34.8451 35.0285Z" fill="#FF61AD"/>
<path d="M27.8219 37.0352C26.3822 36.204 25.889 34.3632 26.7202 32.9235C27.5513 31.4839 29.3922 30.9907 30.8318 31.8218L46.4719 40.8516C47.9115 41.6828 48.4048 43.5237 47.5736 44.9633C46.7424 46.4029 44.9016 46.8962 43.462 46.065L27.8219 37.0352Z" fill="#FF61AD"/>
<path d="M41.8682 33.022C40.4286 32.1908 39.9354 30.35 40.7665 28.9103C41.5977 27.4707 43.4386 26.9775 44.8782 27.8086L60.5183 36.8384C61.9579 37.6696 62.4511 39.5104 61.62 40.9501C60.7888 42.3897 58.948 42.883 57.5083 42.0518L41.8682 33.022Z" fill="#FF61AD"/>
<path d="M47.8882 30.0121C46.4485 29.1809 45.9553 27.3401 46.7865 25.9005C47.6176 24.4608 49.4585 23.9676 50.8981 24.7988L66.5382 33.8286C67.9778 34.6597 68.4711 36.5006 67.6399 37.9402C66.8087 39.3798 64.9679 39.8731 63.5282 39.0419L47.8882 30.0121Z" fill="#FF61AD"/>
<path d="M9.16228 7.97619C9.71639 7.01644 10.6028 7.42219 11.5625 7.9763L18.5137 11.9896C19.4734 12.5437 20.1431 13.0363 19.589 13.9961L11.5625 27.8984C11.0084 28.8581 9.78116 29.1869 8.82141 28.6328L1.87026 24.6196C0.910509 24.0655 0.581673 22.8382 1.13579 21.8785L9.16228 7.97619Z" fill="#FF61AD"/>
<path d="M42.0776 14.7948C42.5379 14.4442 43.0554 14.1758 43.6071 14.0015L50.9527 11.6819C51.8367 11.4027 52.7808 11.374 53.6801 11.5988L62.4862 13.8003C63.6829 14.0995 64.9478 13.9473 66.0394 13.3728L69.6261 11.4851C72.0026 10.2343 74.9425 11.0769 76.2957 13.3966L79.1271 18.2504C80.1907 20.0738 79.9991 22.368 78.6477 23.9896L71.2123 32.9122C69.5843 34.8658 66.752 35.2922 64.621 33.9045L49.4247 24.009C47.8116 22.9586 45.7396 22.9238 44.0922 23.9197L39.4607 26.7192C37.5619 27.867 35.0907 27.2314 33.9813 25.3099C32.9848 23.5839 33.4259 21.3863 35.0112 20.1786L42.0776 14.7948Z" fill="#00F0FF"/>
<path d="M36.9494 38.2418C37.3797 36.6361 39.0301 35.6832 40.6358 36.1134C42.2415 36.5437 43.1944 38.1941 42.7642 39.7998L40.8388 46.9853C40.4086 48.591 38.7581 49.5438 37.1524 49.1136C35.5467 48.6834 34.5938 47.0329 35.0241 45.4272L36.9494 38.2418Z" fill="#00F0FF"/>
<path d="M31.9329 36.2352C32.3631 34.6295 34.0136 33.6766 35.6193 34.1068C37.225 34.5371 38.1779 36.1875 37.7476 37.7932L35.8223 44.9786C35.392 46.5843 33.7416 47.5372 32.1359 47.107C30.5302 46.6767 29.5773 45.0263 30.0075 43.4206L31.9329 36.2352Z" fill="#00F0FF"/>
<path d="M25.843 36.2352C26.2732 34.6295 27.9237 33.6766 29.5294 34.1068C31.1351 34.5371 32.088 36.1875 31.6577 37.7932L30.8057 40.973C30.3755 42.5787 28.725 43.5316 27.1193 43.1013C25.5136 42.6711 24.5607 41.0206 24.991 39.4149L25.843 36.2352Z" fill="#00F0FF"/>
<path d="M20.2482 35.2318C20.6785 33.6261 22.3289 32.6733 23.9346 33.1035C25.5403 33.5337 26.4932 35.1842 26.063 36.7899L25.7892 37.8117C25.3589 39.4174 23.7085 40.3703 22.1028 39.94C20.4971 39.5098 19.5442 37.8593 19.9744 36.2536L20.2482 35.2318Z" fill="#00F0FF"/>
<path d="M85.8076 1.95628C85.2535 0.996531 84.0262 0.667694 83.0665 1.22181L76.1153 5.23505C75.1556 5.78917 74.8267 7.0164 75.3809 7.97615L82.3041 19.9676C82.8582 20.9273 84.0855 21.2562 85.0452 20.7021L91.9964 16.6888C92.9561 16.1347 93.2849 14.9075 92.7308 13.9477L85.8076 1.95628Z" fill="#00F0FF"/>
</svg>
