<svg viewBox="0 0 75 163" fill="none" xmlns="http://www.w3.org/2000/svg">
<path fill-rule="evenodd" clip-rule="evenodd" d="M10 0C4.47715 0 0 4.47715 0 10V153C0 158.523 4.47715 163 10 163H65C70.5229 163 75 158.523 75 153V10C75 4.47715 70.5229 0 65 0H10ZM25.3521 4.76299C25.3521 3.88615 26.0629 3.17533 26.9398 3.17533H48.0602C48.937 3.17533 49.6479 3.88615 49.6479 4.76299C49.6479 5.63983 48.937 6.35065 48.0602 6.35065H26.9398C26.0629 6.35065 25.3521 5.63983 25.3521 4.76299ZM69.7183 11.6429H5.28168V137.597H69.7183V11.6429ZM37.5 156.649C41.2921 156.649 44.3662 153.569 44.3662 149.769C44.3662 145.97 41.2921 142.89 37.5 142.89C33.7079 142.89 30.6338 145.97 30.6338 149.769C30.6338 153.569 33.7079 156.649 37.5 156.649Z" fill="#EEEEEE"/>
</svg>
