<svg viewBox="0 0 115 133" fill="none" xmlns="http://www.w3.org/2000/svg">
<path fill-rule="evenodd" clip-rule="evenodd" d="M10 0C4.47715 0 0 4.47715 0 10V123C0 128.523 4.47715 133 10 133H105C110.523 133 115 128.523 115 123V10C115 4.47715 110.523 0 105 0H10ZM8.32239 9.76836H106.678V116.469H8.32239V9.76836ZM38.5856 124.527C38.5856 123.812 39.1656 123.232 39.881 123.232H74.5436C75.2591 123.232 75.8391 123.812 75.8391 124.527C75.8391 125.243 75.2591 125.823 74.5436 125.823H39.881C39.1656 125.823 38.5856 125.243 38.5856 124.527Z" fill="#EEEEEE"/>
</svg>
