<svg viewBox="0 0 70 59" fill="none" xmlns="http://www.w3.org/2000/svg">
<path fill-rule="evenodd" clip-rule="evenodd" d="M7.06338 0C4.76868 0 2.90845 1.86023 2.90845 4.15493V30.7465C2.90845 33.0412 4.76868 34.9014 7.06338 34.9014H51.5211C53.8158 34.9014 55.6761 33.0412 55.6761 30.7465V4.15493C55.6761 1.86023 53.8158 0 51.5211 0H7.06338ZM51.5211 3.73944H7.06338V31.162H51.5211V3.73944Z" fill="#EEEEEE"/>
<path d="M24.5972 36.5634H33.5718L36.5634 40.7183H21.6056L24.5972 36.5634Z" fill="#EEEEEE"/>
<path fill-rule="evenodd" clip-rule="evenodd" d="M4.15493 44.8732C1.86023 44.8732 0 46.7335 0 49.0282V54.8451C0 57.1398 1.86023 59 4.15493 59H54.0141C56.3088 59 58.169 57.1398 58.169 54.8451V49.0282C58.169 46.7335 56.3088 44.8732 54.0141 44.8732H4.15493ZM53.5888 46.3868H4.58024V57.4864H53.5888V46.3868Z" fill="#EEEEEE"/>
<path d="M4.57042 45.7042H6.23239V57.7535H4.57042V45.7042Z" fill="#EEEEEE"/>
<path d="M8.72535 54.3257H10.4621V57.7535H8.72535V54.3257Z" fill="#EEEEEE"/>
<path d="M8.72535 45.7042H10.3873V52.3521H8.72535V45.7042Z" fill="#EEEEEE"/>
<path d="M13.2958 45.7042H14.9577V57.7535H13.2958V45.7042Z" fill="#EEEEEE"/>
<path d="M17.4507 45.7042H19.1127V57.7535H17.4507V45.7042Z" fill="#EEEEEE"/>
<path d="M22.0211 44.8732H23.6831V54.8451H22.0211V44.8732Z" fill="#EEEEEE"/>
<path d="M26.1761 44.8732H27.838V54.8451H26.1761V44.8732Z" fill="#EEEEEE"/>
<path d="M30.7465 44.8732H32.4085V54.8451H30.7465V44.8732Z" fill="#EEEEEE"/>
<path d="M34.9014 44.8732H36.5634V54.8451H34.9014V44.8732Z" fill="#EEEEEE"/>
<path d="M39.4718 45.7042H41.1338V57.7535H39.4718V45.7042Z" fill="#EEEEEE"/>
<path d="M43.6268 45.7042H45.2887V57.7535H43.6268V45.7042Z" fill="#EEEEEE"/>
<path d="M47.7817 54.3257H49.5185V57.7535H47.7817V54.3257Z" fill="#EEEEEE"/>
<path d="M47.7817 45.7042H49.4437V52.3521H47.7817V45.7042Z" fill="#EEEEEE"/>
<path d="M52.3521 45.7042H54.0141V57.7535H52.3521V45.7042Z" fill="#EEEEEE"/>
<path d="M52.3521 51.2095V52.456H5.8169V51.2095L52.3521 51.2095Z" fill="#EEEEEE"/>
<path d="M52.3521 48.1972V49.4437L5.8169 49.4437V48.1972L52.3521 48.1972Z" fill="#EEEEEE"/>
<path d="M52.3521 54.3257V55.5722L5.8169 55.5722V54.3257H52.3521Z" fill="#EEEEEE"/>
<path fill-rule="evenodd" clip-rule="evenodd" d="M65.2324 44.8732C62.9377 44.8732 61.0775 46.7335 61.0775 49.0282V54.8451C61.0775 57.1398 62.9377 59 65.2324 59C67.5271 59 69.3873 57.1398 69.3873 54.8451V49.0282C69.3873 46.7335 67.5271 44.8732 65.2324 44.8732ZM65.2324 45.2887C65.0029 45.2887 64.8169 45.4748 64.8169 45.7042V48.6127C64.8169 48.8421 65.0029 49.0282 65.2324 49.0282C65.4619 49.0282 65.6479 48.8421 65.6479 48.6127V45.7042C65.6479 45.4748 65.4619 45.2887 65.2324 45.2887Z" fill="#EEEEEE"/>
<path d="M44.6531 27.5884C44.9261 27.1156 42.4613 25.1814 39.1477 23.2683C35.8342 21.3552 33.9934 19.784 33.2789 21.0216C32.5645 22.2591 34.8455 23.0676 38.1591 24.9807C41.4726 26.8937 44.3801 28.0613 44.6531 27.5884Z" fill="#EEEEEE"/>
<path d="M31.7992 21.2132C29.1455 21.924 28.6508 18.3955 28.9382 17.0147C29.5788 18.1541 31.0499 17.8754 31.5807 18.2817C33.0739 19.4245 33.6374 20.7209 31.7992 21.2132Z" fill="#EEEEEE"/>
<path d="M40.3028 9.97185C40.3028 11.8076 38.8146 13.2958 36.9789 13.2958C35.1431 13.2958 33.6549 11.8076 33.6549 9.97185C33.6549 8.13608 35.1431 6.6479 36.9789 6.6479C38.8146 6.6479 40.3028 8.13608 40.3028 9.97185Z" fill="#EEEEEE" fill-opacity="0.4"/>
<path d="M27.2408 9.91991L35.7192 24.605H18.7623L27.2408 9.91991Z" fill="#EEEEEE" fill-opacity="0.4"/>
<path d="M34.7716 14.4384L40.6413 24.605H28.9019L34.7716 14.4384Z" fill="#EEEEEE" fill-opacity="0.4"/>
</svg>
