<svg viewBox="0 0 65 65" fill="none" xmlns="http://www.w3.org/2000/svg">
<path fill-rule="evenodd" clip-rule="evenodd" d="M26 0H40V8.1208C41.8649 8.69384 43.6387 9.475 45.2943 10.4372L51.3467 4.38478L61.2462 14.2843L55.0143 20.5162C55.7716 21.936 56.3986 23.436 56.8792 25H65V39H57.1641C56.7269 40.6634 56.1259 42.2604 55.3793 43.7728L61.2462 49.6396L51.3467 59.5391L45.9661 54.1585C44.1216 55.3077 42.1197 56.2279 40 56.8792V65H26V57.1641C24.0735 56.6578 22.2361 55.9317 20.5161 55.0143L15.2842 60.2462L5.38475 50.3467L10.4371 45.2943C9.30443 43.3453 8.42261 41.2325 7.83585 39H0V25H8.12076C8.77208 22.8803 9.69225 20.8784 10.8415 19.0339L5.38475 13.5772L15.2842 3.67767L21.2272 9.62064C22.7395 8.87409 24.3366 8.27306 26 7.83587V0ZM45 32.5C45 39.4036 39.4035 45 32.5 45C25.5964 45 20 39.4036 20 32.5C20 25.5964 25.5964 20 32.5 20C39.4035 20 45 25.5964 45 32.5Z" fill="#EEEEEE"/>
</svg>
