<svg width="276" height="296" viewBox="0 0 276 296" fill="none" xmlns="http://www.w3.org/2000/svg">
<ellipse cx="137" cy="157.532" rx="109" ry="117.887" fill="#EEEEEE"/>
<path d="M11.0307 106.897C28.1113 101.654 33.5051 118.694 38 133.112L30.134 192.094C5.41206 192.094 -12.5675 114.141 11.0307 106.897Z" fill="#EEEEEE"/>
<path d="M264.969 106.897C247.889 101.654 242.495 118.694 238 133.112L245.866 192.094C270.588 192.094 288.567 114.141 264.969 106.897Z" fill="#EEEEEE"/>
<path fill-rule="evenodd" clip-rule="evenodd" d="M103.468 214.582C114.81 212.493 126.399 210.359 137.155 211C144.829 211.457 153.021 212.712 161.312 213.982C204.911 220.661 251.263 227.762 239.5 121.551C256.5 201.089 251.039 295.304 137.155 295.304C23.2722 295.304 17.4999 191.62 39 120.604C28.547 228.379 64.5574 221.747 103.468 214.582ZM116.851 238.302C122.11 238.885 128.481 239.591 136.279 239.591C144.177 239.591 150.99 238.867 156.511 238.28C160.271 237.88 163.433 237.544 165.929 237.544C168.654 252.802 167.858 252.799 142.953 252.71C140.896 252.702 138.676 252.694 136.279 252.694C133.88 252.694 131.659 252.702 129.605 252.71C104.746 252.799 104.239 252.801 107.305 237.544C110.01 237.544 113.156 237.893 116.851 238.302Z" fill="#00F0FF"/>
<mask id="mask0" mask-type="alpha" maskUnits="userSpaceOnUse" x="29" y="120" width="218" height="176">
<path fill-rule="evenodd" clip-rule="evenodd" d="M103.468 214.582C114.81 212.493 126.399 210.359 137.155 211C144.829 211.457 153.021 212.712 161.312 213.982C204.911 220.661 251.263 227.762 239.5 121.551C256.5 201.089 251.039 295.304 137.155 295.304C23.2722 295.304 17.4999 191.62 39 120.604C28.547 228.379 64.5574 221.747 103.468 214.582ZM116.851 238.302C122.11 238.885 128.481 239.591 136.279 239.591C144.177 239.591 150.99 238.867 156.511 238.28C160.271 237.88 163.433 237.544 165.929 237.544C168.654 252.802 167.858 252.799 142.953 252.71C140.896 252.702 138.676 252.694 136.279 252.694C133.88 252.694 131.659 252.702 129.605 252.71C104.746 252.799 104.239 252.801 107.305 237.544C110.01 237.544 113.156 237.893 116.851 238.302Z" fill="#00F0FF"/>
</mask>
<g mask="url(#mask0)">
<path d="M99 277.299L188.097 336.057C200.437 347.958 213.656 365.647 167.812 341.204C121.969 316.76 102.836 288.416 99 277.299Z" fill="#333333"/>
<path d="M148 286.768L237.097 345.526C249.437 357.426 262.656 375.116 216.812 350.673C170.969 326.229 151.836 297.884 148 286.768Z" fill="#333333"/>
</g>
<path d="M70.6075 9.3444C27.4075 27.5246 2.60754 100.246 38.6075 126.758C38.6075 126.758 58.6077 75.3389 82.6075 68.0514C95.2682 64.207 118.268 77.5202 137.608 77.5202C162.54 77.5202 183.697 62.6368 200.608 68.0514C221.68 74.7985 240.608 126.758 240.608 126.758C251.941 122.34 247.008 81.6866 232.608 52.9012C218.208 24.1158 203.274 20.0758 160.608 9.3444C143.274 6.81937 113.808 -8.83584 70.6075 9.3444Z" fill="#00F0FF"/>
<path fill-rule="evenodd" clip-rule="evenodd" d="M56.8342 126.759H126.526C130.471 141.277 128.893 170.315 91.0226 170.315C53.1524 170.315 52.4511 141.277 56.8342 126.759ZM67.2815 133.759H115.97C118.726 144.425 117.624 165.759 91.1665 165.759C64.7092 165.759 64.2193 144.425 67.2815 133.759Z" fill="#FF61AD"/>
<path fill-rule="evenodd" clip-rule="evenodd" d="M150.834 126.759H220.526C224.471 141.277 222.893 170.315 185.023 170.315C147.153 170.315 146.451 141.277 150.834 126.759ZM161.282 133.387H209.97C212.726 143.487 211.624 163.687 185.167 163.687C158.709 163.687 158.219 143.487 161.282 133.387Z" fill="#FF61AD"/>
<path d="M156 133.974C156 136.913 147.493 133.974 137 133.974C126.507 133.974 118 136.913 118 133.974C118 131.035 126.507 128.652 137 128.652C147.493 128.652 156 131.035 156 133.974Z" fill="#FF61AD"/>
<path d="M32.5 120.13L57 126.758L55.5 136.227L35.5 126.285C35.5 126.285 31.5 124.865 30 120.13C29.4252 118.316 29.5846 118.069 30 118.236C30.6685 118.506 32.5 120.13 32.5 120.13Z" fill="#FF61AD"/>
<path d="M242 120.174L219 126.802L220.5 136.271L241 126.802C241 126.802 244 125.338 245.5 120.604C246.075 118.789 246.5 115.869 246 116.816C245.331 117.086 242 120.174 242 120.174Z" fill="#FF61AD"/>
</svg>
