<svg viewBox="0 0 370 265" fill="none" xmlns="http://www.w3.org/2000/svg">
<path d="M37.0192 132C39.7834 129.827 49.0865 124.83 64.1848 122.222M112.654 167.852C109.365 158.074 106.077 154.815 99.5 148.296M37.0192 132.5H37.1922L37.3282 132.393C40.0102 130.285 49.229 125.312 64.2699 122.715L64.0997 121.73C49.1808 124.306 39.8514 129.213 36.8485 131.5H32.8146C21.6358 122.513 14.5 108.828 14.5 93.5C14.5 66.4445 36.7381 44.5 64.1848 44.5C91.5815 44.5 113.789 66.3648 113.869 93.3525L112.264 95.8308C111.156 96.9251 108.567 99.3269 105.927 101.463C104.591 102.544 103.252 103.549 102.09 104.281C101.509 104.647 100.983 104.938 100.53 105.137C100.067 105.34 99.7248 105.426 99.5 105.426V106.426C99.9329 106.426 100.427 106.274 100.931 106.053C101.446 105.827 102.019 105.508 102.623 105.127C103.833 104.365 105.206 103.332 106.556 102.241C109.256 100.056 111.899 97.6002 113.006 96.5033L113.044 96.4653L113.073 96.42L114.641 94H255.359L256.927 96.42L256.983 96.5077L257.071 96.5653C258.695 97.6385 261.964 100.068 264.822 102.632C266.252 103.914 267.566 105.218 268.519 106.393C268.995 106.981 269.372 107.526 269.627 108.011C269.887 108.504 270 108.894 270 109.185H271C271 108.661 270.805 108.101 270.512 107.545C270.215 106.982 269.796 106.381 269.296 105.764C268.296 104.529 266.938 103.185 265.49 101.887C262.644 99.3348 259.4 96.9154 257.709 95.789L256.131 93.3525C256.211 66.3648 278.419 44.5 305.815 44.5C333.262 44.5 355.5 66.4445 355.5 93.5C355.5 108.828 348.364 122.513 337.185 131.5H332.981H332.864L332.759 131.552C326.229 134.788 316.44 138.019 306.673 138.019V139.019C316.584 139.019 326.474 135.765 333.098 132.5H337.185C348.364 141.487 355.5 155.172 355.5 170.5C355.5 197.555 333.262 219.5 305.815 219.5C278.419 219.5 256.211 197.635 256.131 170.647L257.737 168.169C258.571 167.336 259.398 166.309 260.258 165.206C260.445 164.966 260.633 164.724 260.823 164.478C261.53 163.565 262.269 162.611 263.073 161.655C265.109 159.233 267.523 156.848 270.722 155.263L270.278 154.367C266.9 156.041 264.382 158.544 262.307 161.012C261.489 161.984 260.735 162.959 260.026 163.874C259.837 164.117 259.652 164.357 259.47 164.591C258.596 165.711 257.791 166.707 256.994 167.497L256.956 167.535L256.927 167.58L255.359 170H114.641L113.108 167.633C111.458 162.742 109.799 159.45 107.716 156.56C105.636 153.674 103.144 151.204 99.8734 147.962L99.852 147.941L99.148 148.651C102.444 151.918 104.878 154.332 106.904 157.144C108.924 159.946 110.547 163.157 112.18 168.011L112.2 168.071L112.234 168.124L113.869 170.647C113.789 197.635 91.5815 219.5 64.1848 219.5C36.7381 219.5 14.5 197.555 14.5 170.5C14.5 155.172 21.6358 141.487 32.8146 132.5H37.0192Z" fill="#ECE9E9" stroke="#C9C7C7"/>
<g filter="url(#filter0_d)">
<path d="M122.183 77.948C113.105 51.1492 158.621 66.2739 179.128 77.948C181.5 76.447 187.771 74.3455 193.872 77.9478C214.379 66.2737 259.895 51.149 250.817 77.9478C250.309 79.4488 248.928 83.7085 248.784 87.4539C248.63 91.4524 250.485 94.9586 250.817 97.5C253.718 119.699 229.148 114.049 208.617 104.939C207.6 112.695 219.294 137.986 238.106 149.994C233.022 152.829 221.836 149.994 208.617 148.493L198.957 160C192.347 151.578 186.754 126.979 186.754 99.336C186.754 126.479 181.161 151.578 174.552 160L164.891 148.493C151.672 149.994 140.486 152.829 135.402 149.994C154.214 137.986 165.908 112.468 164.891 104.712C144.26 113.954 119.258 119.883 122.183 97.5C122.515 94.9587 124.37 91.4525 124.216 87.454C124.072 83.7086 122.691 79.4489 122.183 77.948Z" fill="#ED7AC0"/>
<path d="M179.128 77.948C158.621 66.2739 113.105 51.1492 122.183 77.948C122.691 79.4489 124.072 83.7086 124.216 87.454C124.37 91.4525 122.515 94.9587 122.183 97.5C119.258 119.883 144.26 113.954 164.891 104.712M179.128 77.948C181.5 76.447 187.771 74.3455 193.872 77.9478M179.128 77.948C176.938 81.0828 176.445 84.9112 176.731 88.4545M179.128 97.5C178.176 95.5351 177.03 92.1499 176.731 88.4545M179.128 97.5C175.003 99.8481 170.086 102.385 164.891 104.712M179.128 97.5C182.164 98.8787 184.664 99.3467 186.754 99.336M193.872 77.9478C214.379 66.2737 259.895 51.149 250.817 77.9478C250.309 79.4488 248.928 83.7085 248.784 87.4539C248.63 91.4524 250.485 94.9586 250.817 97.5C254.478 125.518 214.379 109.174 193.872 97.5M193.872 77.9478C197.533 85.5527 195.398 94.1513 193.872 97.5M193.872 97.5C192.138 98.2105 189.914 99.3199 186.754 99.336M176.731 88.4545C174.988 87.9542 170.179 87.2537 164.891 88.4545M195.869 88.4545C197.612 87.9542 202.421 87.2537 207.709 88.4545M164.891 104.712C165.908 112.468 154.214 137.986 135.402 149.994C140.486 152.829 151.672 149.994 164.891 148.493L174.552 160C181.161 151.578 186.754 126.479 186.754 99.336M186.754 99.336C186.754 126.979 192.347 151.578 198.957 160L208.617 148.493C221.836 149.994 233.022 152.829 238.106 149.994C219.294 137.986 207.6 112.695 208.617 104.939" stroke="#BA7AA1"/>
</g>
<defs>
<filter id="filter0_d" x="118.5" y="62.5" width="136" height="102.293" filterUnits="userSpaceOnUse" color-interpolation-filters="sRGB">
<feFlood flood-opacity="0" result="BackgroundImageFix"/>
<feColorMatrix in="SourceAlpha" type="matrix" values="0 0 0 0 0 0 0 0 0 0 0 0 0 0 0 0 0 0 127 0"/>
<feOffset dy="2"/>
<feGaussianBlur stdDeviation="1"/>
<feColorMatrix type="matrix" values="0 0 0 0 0 0 0 0 0 0 0 0 0 0 0 0 0 0 0.05 0"/>
<feBlend mode="normal" in2="BackgroundImageFix" result="effect1_dropShadow"/>
<feBlend mode="normal" in="SourceGraphic" in2="effect1_dropShadow" result="shape"/>
</filter>
</defs>
</svg>
