<svg viewBox="0 0 56 59" fill="none" xmlns="http://www.w3.org/2000/svg">
<path d="M54.5 27.5C54.5 42.4117 42.4117 54.5 27.5 54.5C12.5883 54.5 0.5 42.4117 0.5 27.5C0.5 12.5883 12.5883 0.5 27.5 0.5C42.4117 0.5 54.5 12.5883 54.5 27.5Z" fill="#C4C4C4" stroke="#D86EAE"/>
<g clip-path="url(#clip0)">
<ellipse rx="4.5032" ry="5.9146" transform="matrix(0.427204 -0.904155 0.826076 0.563558 14.3362 32.1314)" fill="#ED79BF"/>
<path opacity="0.5" fill-rule="evenodd" clip-rule="evenodd" d="M17.1108 28.7278C19.2247 30.6274 20.166 33.4669 19.2221 35.4646C18.3308 37.351 16.0416 37.8876 13.7341 36.9247C14.8677 37.1072 16.2083 37.1406 17.4369 36.0751C19.18 34.5634 17.9686 30.4406 17.1108 28.7278Z" fill="#7C7B7C" fill-opacity="0.9"/>
<path opacity="0.5" d="M10.2129 32.6139C9.28912 30.3803 10.2085 26.8778 13.0737 27.4527C14.2696 27.6926 9.85369 30.1669 10.2129 32.6139Z" fill="#FEFEFE" fill-opacity="0.9"/>
<ellipse rx="4.33697" ry="6.09086" transform="matrix(0.671444 -0.741055 0.676741 0.736221 16.8819 20.793)" fill="#ED79BF"/>
<path opacity="0.5" fill-rule="evenodd" clip-rule="evenodd" d="M20.3735 18.2792C22.1514 20.6707 22.4653 23.6641 21.0038 25.2772C20.0237 26.3589 18.4712 26.5702 16.8928 26.0096C18.2271 25.9535 19.6284 25.337 20.6283 23.4192C21.3365 22.0606 20.8125 19.8994 20.3735 18.2792Z" fill="#7C7B7C" fill-opacity="0.9"/>
<path opacity="0.5" d="M12.5515 19.9269C11.4549 16.86 14.477 14.7305 16.5332 15.9582C17.1403 16.3207 12.7996 20.6207 12.5515 19.9269Z" fill="#FEFEFE"/>
<path opacity="0.9" d="M13.6361 17.4967C13.5523 16.5267 14.4604 15.7388 14.907 16.0781C15.0389 16.1783 13.6957 18.1869 13.6361 17.4967Z" fill="white"/>
<ellipse rx="4.33698" ry="6.09085" transform="matrix(-0.977495 0.210961 0.299215 0.954186 26.3286 15.3389)" fill="#ED79BF"/>
<path opacity="0.5" fill-rule="evenodd" clip-rule="evenodd" d="M30.4264 14.0092C30.316 16.1889 29.3719 19.074 27.8677 20.1157C27.5776 20.3166 27.2786 20.5264 26.9771 20.7379C26.8119 20.8538 26.646 20.9702 26.4804 21.0859C27.04 21.2398 27.6056 21.2685 28.1511 21.1508C30.4924 20.6455 31.5745 17.6338 30.568 14.424C30.524 14.2838 30.4767 14.1455 30.4264 14.0092Z" fill="#7C7B7C" fill-opacity="0.9"/>
<path opacity="0.5" d="M22.5283 16.3823C20.645 10.5356 25.4455 9.39112 25.4459 9.86083C25.4467 10.9568 22.9423 11.8943 22.5283 16.3823Z" fill="#FEFEFE"/>
<path opacity="0.9" d="M22.3617 14.6726C22.1121 13.8212 22.5196 12.7376 22.8677 12.8679C22.9705 12.9064 22.5393 15.2784 22.3617 14.6726Z" fill="white"/>
<ellipse rx="4.5032" ry="5.9146" transform="matrix(-0.996623 -0.0821078 0.0750173 0.997182 37.3475 18.7918)" fill="#ED79BF"/>
<path opacity="0.5" fill-rule="evenodd" clip-rule="evenodd" d="M41.6039 17.7546C41.2887 19.5441 40.6949 21.3978 39.6772 22.5408C38.9552 23.3517 37.4337 23.7588 35.8232 23.9624C36.434 24.3751 37.1022 24.6329 37.7912 24.6897C40.2698 24.8939 42.0805 22.4188 41.8355 19.1615C41.7993 18.6804 41.7203 18.2091 41.6039 17.7546Z" fill="#7C7B7C" fill-opacity="0.9"/>
<path opacity="0.5" d="M33.3248 19.2269C33.0593 15.2349 34.9308 12.7446 36.9412 13.2419C38.1268 13.5352 35.3137 12.3477 33.3248 19.2269Z" fill="#FEFEFE"/>
<path d="M25.6515 44.9632C29.8091 47.386 33.7293 43.113 35.1697 40.6737C38.0024 40.6459 43.663 39.3874 43.6436 34.5754C43.6193 28.5604 34.107 20.6545 26.2355 25.1992C18.3639 29.7438 20.4545 41.9347 25.6515 44.9632Z" fill="#ED79BF"/>
<path opacity="0.5" fill-rule="evenodd" clip-rule="evenodd" d="M25.0234 44.5419C25.1374 44.5773 25.2522 44.611 25.3676 44.6428C29.9775 45.9126 33.2601 41.2625 34.2843 39.8116C34.4496 39.5774 34.556 39.4266 34.5998 39.3974C34.6217 39.3827 34.7311 39.3595 34.9076 39.322C36.7517 38.9301 45.9214 36.9814 39.2083 27.0051L39.2082 26.8864C41.8568 29.0337 43.6331 31.9805 43.6436 34.5755C43.663 39.3875 38.0024 40.6459 35.1697 40.6737C33.7293 43.113 29.8091 47.386 25.6515 44.9632C25.4367 44.838 25.2271 44.6972 25.0234 44.5419Z" fill="#7C7B7C" fill-opacity="0.9"/>
<path opacity="0.5" d="M23.4663 28.8839C20.0163 34.413 22.8803 40.2989 24.1061 42.0156C21.9028 33.2948 32.9108 26.7902 31.3349 24.793C29.4447 23.601 25.0387 26.3639 23.4663 28.8839Z" fill="#EFEFEF" fill-opacity="0.9"/>
<path opacity="0.9" d="M27.0514 28.4881C25.9129 29.8313 24.9498 30.6771 25.7636 28.4871C26.863 25.5282 28.8341 26.3848 27.0514 28.4881Z" fill="#FEFEFE"/>
</g>
<defs>
<clipPath id="clip0">
<rect width="39.1314" height="42.2224" fill="white" transform="translate(1 21.5657) rotate(-30)"/>
</clipPath>
</defs>
</svg>
