<svg viewBox="0 0 352 250" fill="none" xmlns="http://www.w3.org/2000/svg">
<path d="M1.44 46.192H5.04V13.792H1.44V1.984H34.488C40.68 1.984 45.408 3.256 48.672 5.8C51.936 8.344 53.568 12.472 53.568 18.184C53.568 21.4 52.92 24.184 51.624 26.536C50.328 28.888 48.48 30.52 46.08 31.432L46.152 32.152C50.76 32.872 53.064 35.704 53.064 40.648V46.192H56.448V58H33.624V41.08C33.624 39.208 33.336 37.792 32.76 36.832C32.232 35.872 31.368 35.224 30.168 34.888C29.016 34.552 27.36 34.384 25.2 34.384V46.192H29.952V58H1.44V46.192ZM29.088 25.6C30.48 25.6 31.512 25.24 32.184 24.52C32.904 23.752 33.264 22.576 33.264 20.992V18.4C33.264 16.816 32.904 15.664 32.184 14.944C31.512 14.176 30.48 13.792 29.088 13.792H25.2V25.6H29.088ZM111.874 46.192H114.754V58H86.5299V46.192H90.8499L89.6979 40.432H79.9059L78.7539 46.192H83.0739V58H58.4499V46.192H61.3299L73.4979 1.984H99.7059L111.874 46.192ZM81.4899 32.8H88.1139L85.1619 18.472H84.4419L81.4899 32.8ZM170.648 1.984H193.688V13.792H190.808L180.08 58H158.552L152 26.896H151.28L144.368 58H122.84L111.392 13.792H108.512V1.984H135.152V13.792H132.416L135.224 32.152H135.944L142.784 1.984H163.52L169.856 32.152H170.576L173.384 13.792H170.648V1.984ZM195.995 46.192H199.595V13.792H195.995V1.984H229.043C235.235 1.984 239.963 3.256 243.227 5.8C246.491 8.344 248.123 12.472 248.123 18.184C248.123 21.4 247.475 24.184 246.179 26.536C244.883 28.888 243.035 30.52 240.635 31.432L240.707 32.152C245.315 32.872 247.619 35.704 247.619 40.648V46.192H251.003V58H228.179V41.08C228.179 39.208 227.891 37.792 227.315 36.832C226.787 35.872 225.923 35.224 224.723 34.888C223.571 34.552 221.915 34.384 219.755 34.384V46.192H224.507V58H195.995V46.192ZM223.643 25.6C225.035 25.6 226.067 25.24 226.739 24.52C227.459 23.752 227.819 22.576 227.819 20.992V18.4C227.819 16.816 227.459 15.664 226.739 14.944C226.067 14.176 225.035 13.792 223.643 13.792H219.755V25.6H223.643ZM76.0759 64.984H98.1799V76.792H95.2999L81.4039 101.704V109.192H85.0039V121H57.6439V109.192H61.2439V101.704L46.9159 76.792H44.0359V64.984H71.8999V76.792H69.3799L73.6279 87.952H74.3479L78.5959 76.792H76.0759V64.984ZM125.403 122.008C116.619 122.008 109.827 119.704 105.027 115.096C100.275 110.488 97.8986 103.12 97.8986 92.992C97.8986 82.864 100.275 75.496 105.027 70.888C109.827 66.28 116.619 63.976 125.403 63.976C134.187 63.976 140.955 66.28 145.707 70.888C150.507 75.496 152.907 82.864 152.907 92.992C152.907 103.12 150.507 110.488 145.707 115.096C140.955 119.704 134.187 122.008 125.403 122.008ZM125.403 109.192C127.035 109.192 128.259 108.76 129.075 107.896C129.891 107.032 130.299 105.688 130.299 103.864V82.12C130.299 80.296 129.891 78.952 129.075 78.088C128.259 77.224 127.035 76.792 125.403 76.792C123.771 76.792 122.547 77.224 121.731 78.088C120.915 78.952 120.507 80.296 120.507 82.12V103.864C120.507 105.736 120.915 107.104 121.731 107.968C122.547 108.784 123.771 109.192 125.403 109.192ZM182.282 122.008C174.746 122.008 168.914 120.352 164.786 117.04C160.706 113.728 158.666 108.352 158.666 100.912V76.792H155.066V64.984H181.706V76.792H178.826V104.584C178.826 106.168 179.162 107.344 179.834 108.112C180.554 108.832 181.61 109.192 183.002 109.192C184.394 109.192 185.426 108.832 186.098 108.112C186.818 107.344 187.178 106.168 187.178 104.584V76.792H184.298V64.984H208.994V76.792H205.394V100.912C205.394 108.352 203.402 113.728 199.418 117.04C195.434 120.352 189.722 122.008 182.282 122.008ZM141.496 145.408H129.112V139.792H124.504V172.192H129.544V184H99.3038V172.192H104.344V139.792H99.7358V145.408H87.3518V127.984H141.496V145.408ZM201.563 139.792H197.963V172.192H201.563V184H174.347V172.192H177.803V160.312H167.723V172.192H171.179V184H143.963V172.192H147.563V139.792H143.963V127.984H171.179V139.792H167.723V150.736H177.803V139.792H174.347V127.984H201.563V139.792ZM204.432 184V172.192H208.032V139.792H204.432V127.984H253.032V149.728H236.904V139.792H228.192V151.168H234.528V159.376H228.192V172.192H236.904V160.816H253.032V184H204.432ZM158.028 248.008C149.244 248.008 142.452 245.704 137.652 241.096C132.9 236.488 130.524 229.12 130.524 218.992C130.524 208.864 132.9 201.496 137.652 196.888C142.452 192.28 149.244 189.976 158.028 189.976C166.812 189.976 173.58 192.28 178.332 196.888C183.132 201.496 185.532 208.864 185.532 218.992C185.532 229.12 183.132 236.488 178.332 241.096C173.58 245.704 166.812 248.008 158.028 248.008ZM158.028 235.192C159.66 235.192 160.884 234.76 161.7 233.896C162.516 233.032 162.924 231.688 162.924 229.864V208.12C162.924 206.296 162.516 204.952 161.7 204.088C160.884 203.224 159.66 202.792 158.028 202.792C156.396 202.792 155.172 203.224 154.356 204.088C153.54 204.952 153.132 206.296 153.132 208.12V229.864C153.132 231.736 153.54 233.104 154.356 233.968C155.172 234.784 156.396 235.192 158.028 235.192ZM229.451 190.984H253.067V202.792H249.467V247H229.235L208.139 214.528V235.192H211.595V247H187.979V235.192H191.579V202.792H187.979V190.984H213.971L232.907 219.856V202.792H229.451V190.984ZM255.831 247V235.192H259.431V202.792H255.831V190.984H304.431V212.728H288.303V202.792H279.591V214.168H285.927V222.376H279.591V235.192H288.303V223.816H304.431V247H255.831ZM316.735 227.92C316.735 225.76 317.119 223.888 317.887 222.304C318.703 220.672 319.663 219.352 320.767 218.344C321.871 217.336 323.287 216.232 325.015 215.032C326.743 213.832 328.015 212.8 328.831 211.936C329.647 211.072 330.055 210.04 330.055 208.84C330.055 206.92 328.615 205.96 325.735 205.96C323.479 205.96 320.959 206.392 318.175 207.256C315.391 208.12 312.847 209.104 310.543 210.208L306.727 195.52C309.895 194.032 313.567 192.736 317.743 191.632C321.919 190.528 326.071 189.976 330.199 189.976C334.279 189.976 337.831 190.6 340.855 191.848C343.927 193.048 346.279 194.776 347.911 197.032C349.543 199.288 350.359 201.904 350.359 204.88C350.359 207.472 349.927 209.656 349.063 211.432C348.247 213.208 347.239 214.672 346.039 215.824C344.839 216.928 343.255 218.152 341.287 219.496C339.655 220.648 338.335 221.656 337.327 222.52C336.367 223.384 335.551 224.44 334.879 225.688C334.255 226.936 333.943 228.424 333.943 230.152V231.232H316.735V227.92ZM316.735 247V235.192H333.871V247H316.735Z" fill="#FFF7B3"/>
<path d="M1.44 46.192V45.192H0.44V46.192H1.44ZM5.04 46.192V47.192H6.04V46.192H5.04ZM5.04 13.792H6.04V12.792H5.04V13.792ZM1.44 13.792H0.44V14.792H1.44V13.792ZM1.44 1.984V0.983996H0.44V1.984H1.44ZM48.672 5.8L48.0573 6.58873L48.672 5.8ZM51.624 26.536L50.7482 26.0534V26.0534L51.624 26.536ZM46.08 31.432L45.7248 30.4972L45.0087 30.7693L45.085 31.5315L46.08 31.432ZM46.152 32.152L45.157 32.2515L45.2339 33.0207L45.9976 33.14L46.152 32.152ZM53.064 46.192H52.064V47.192H53.064V46.192ZM56.448 46.192H57.448V45.192H56.448V46.192ZM56.448 58V59H57.448V58H56.448ZM33.624 58H32.624V59H33.624V58ZM32.76 36.832L31.8838 37.3139L31.8928 37.3304L31.9025 37.3465L32.76 36.832ZM30.168 34.888L29.888 35.8481L29.8984 35.851L30.168 34.888ZM25.2 34.384V33.384H24.2V34.384H25.2ZM25.2 46.192H24.2V47.192H25.2V46.192ZM29.952 46.192H30.952V45.192H29.952V46.192ZM29.952 58V59H30.952V58H29.952ZM1.44 58H0.44V59H1.44V58ZM32.184 24.52L31.4545 23.8361L31.4529 23.8377L32.184 24.52ZM32.184 14.944L31.4314 15.6025L31.4534 15.6276L31.4769 15.6511L32.184 14.944ZM25.2 13.792V12.792H24.2V13.792H25.2ZM25.2 25.6H24.2V26.6H25.2V25.6ZM1.44 47.192H5.04V45.192H1.44V47.192ZM6.04 46.192V13.792H4.04V46.192H6.04ZM5.04 12.792H1.44V14.792H5.04V12.792ZM2.44 13.792V1.984H0.44V13.792H2.44ZM1.44 2.984H34.488V0.983996H1.44V2.984ZM34.488 2.984C40.5629 2.984 45.0372 4.23486 48.0573 6.58873L49.2867 5.01127C45.7788 2.27714 40.7971 0.983996 34.488 0.983996V2.984ZM48.0573 6.58873C50.9944 8.87793 52.568 12.6556 52.568 18.184H54.568C54.568 12.2884 52.8777 7.81006 49.2867 5.01127L48.0573 6.58873ZM52.568 18.184C52.568 21.2645 51.948 23.8758 50.7482 26.0534L52.4998 27.0186C53.892 24.4922 54.568 21.5355 54.568 18.184H52.568ZM50.7482 26.0534C49.5609 28.2081 47.8923 29.6736 45.7248 30.4972L46.4352 32.3668C49.0677 31.3664 51.0951 29.5679 52.4998 27.0186L50.7482 26.0534ZM45.085 31.5315L45.157 32.2515L47.147 32.0525L47.075 31.3325L45.085 31.5315ZM45.9976 33.14C48.1274 33.4728 49.6037 34.2713 50.5603 35.4471C51.5231 36.6306 52.064 38.3246 52.064 40.648H54.064C54.064 38.0273 53.4529 35.8334 52.1117 34.1849C50.7643 32.5287 48.7846 31.5512 46.3064 31.164L45.9976 33.14ZM52.064 40.648V46.192H54.064V40.648H52.064ZM53.064 47.192H56.448V45.192H53.064V47.192ZM55.448 46.192V58H57.448V46.192H55.448ZM56.448 57H33.624V59H56.448V57ZM34.624 58V41.08H32.624V58H34.624ZM34.624 41.08C34.624 39.135 34.33 37.505 33.6175 36.3175L31.9025 37.3465C32.342 38.079 32.624 39.281 32.624 41.08H34.624ZM33.6362 36.3501C32.9606 35.1217 31.8574 34.3226 30.4376 33.925L29.8984 35.851C30.8786 36.1254 31.5034 36.6223 31.8838 37.3139L33.6362 36.3501ZM30.448 33.928C29.1598 33.5523 27.392 33.384 25.2 33.384V35.384C27.328 35.384 28.8722 35.5517 29.888 35.848L30.448 33.928ZM24.2 34.384V46.192H26.2V34.384H24.2ZM25.2 47.192H29.952V45.192H25.2V47.192ZM28.952 46.192V58H30.952V46.192H28.952ZM29.952 57H1.44V59H29.952V57ZM2.44 58V46.192H0.44V58H2.44ZM29.088 26.6C30.64 26.6 31.9866 26.1971 32.9151 25.2023L31.4529 23.8377C31.0374 24.2829 30.32 24.6 29.088 24.6V26.6ZM32.9135 25.2039C33.8774 24.1759 34.264 22.7047 34.264 20.992H32.264C32.264 22.4473 31.9306 23.3281 31.4545 23.8361L32.9135 25.2039ZM34.264 20.992V18.4H32.264V20.992H34.264ZM34.264 18.4C34.264 16.6943 33.8802 15.226 32.8911 14.2369L31.4769 15.6511C31.9278 16.102 32.264 16.9377 32.264 18.4H34.264ZM32.9366 14.2855C32.0126 13.2296 30.6585 12.792 29.088 12.792V14.792C30.3016 14.792 31.0114 15.1224 31.4314 15.6025L32.9366 14.2855ZM29.088 12.792H25.2V14.792H29.088V12.792ZM24.2 13.792V25.6H26.2V13.792H24.2ZM25.2 26.6H29.088V24.6H25.2V26.6ZM111.874 46.192L110.91 46.4574L111.112 47.192H111.874V46.192ZM114.754 46.192H115.754V45.192H114.754V46.192ZM114.754 58V59H115.754V58H114.754ZM86.5299 58H85.5299V59H86.5299V58ZM86.5299 46.192V45.192H85.5299V46.192H86.5299ZM90.8499 46.192V47.192H92.0697L91.8305 45.9959L90.8499 46.192ZM89.6979 40.432L90.6785 40.2359L90.5177 39.432H89.6979V40.432ZM79.9059 40.432V39.432H79.0861L78.9254 40.2359L79.9059 40.432ZM78.7539 46.192L77.7734 45.9959L77.5341 47.192H78.7539V46.192ZM83.0739 46.192H84.0739V45.192H83.0739V46.192ZM83.0739 58V59H84.0739V58H83.0739ZM58.4499 58H57.4499V59H58.4499V58ZM58.4499 46.192V45.192H57.4499V46.192H58.4499ZM61.3299 46.192V47.192H62.0919L62.2941 46.4574L61.3299 46.192ZM73.4979 1.984V0.983996H72.736L72.5338 1.71862L73.4979 1.984ZM99.7059 1.984L100.67 1.71862L100.468 0.983996H99.7059V1.984ZM81.4899 32.8L80.5105 32.5982L80.2629 33.8H81.4899V32.8ZM88.1139 32.8V33.8H89.341L89.0934 32.5982L88.1139 32.8ZM85.1619 18.472L86.1414 18.2702L85.9769 17.472H85.1619V18.472ZM84.4419 18.472V17.472H83.627L83.4625 18.2702L84.4419 18.472ZM111.874 47.192H114.754V45.192H111.874V47.192ZM113.754 46.192V58H115.754V46.192H113.754ZM114.754 57H86.5299V59H114.754V57ZM87.5299 58V46.192H85.5299V58H87.5299ZM86.5299 47.192H90.8499V45.192H86.5299V47.192ZM91.8305 45.9959L90.6785 40.2359L88.7174 40.6281L89.8694 46.3881L91.8305 45.9959ZM89.6979 39.432H79.9059V41.432H89.6979V39.432ZM78.9254 40.2359L77.7734 45.9959L79.7345 46.3881L80.8865 40.6281L78.9254 40.2359ZM78.7539 47.192H83.0739V45.192H78.7539V47.192ZM82.0739 46.192V58H84.0739V46.192H82.0739ZM83.0739 57H58.4499V59H83.0739V57ZM59.4499 58V46.192H57.4499V58H59.4499ZM58.4499 47.192H61.3299V45.192H58.4499V47.192ZM62.2941 46.4574L74.4621 2.24937L72.5338 1.71862L60.3658 45.9266L62.2941 46.4574ZM73.4979 2.984H99.7059V0.983996H73.4979V2.984ZM98.7418 2.24937L110.91 46.4574L112.838 45.9266L100.67 1.71862L98.7418 2.24937ZM81.4899 33.8H88.1139V31.8H81.4899V33.8ZM89.0934 32.5982L86.1414 18.2702L84.1825 18.6738L87.1345 33.0018L89.0934 32.5982ZM85.1619 17.472H84.4419V19.472H85.1619V17.472ZM83.4625 18.2702L80.5105 32.5982L82.4694 33.0018L85.4214 18.6738L83.4625 18.2702ZM170.648 1.984V0.983996H169.648V1.984H170.648ZM193.688 1.984H194.688V0.983996H193.688V1.984ZM193.688 13.792V14.792H194.688V13.792H193.688ZM190.808 13.792V12.792H190.022L189.837 13.5562L190.808 13.792ZM180.08 58V59H180.867L181.052 58.2358L180.08 58ZM158.552 58L157.574 58.2061L157.741 59H158.552V58ZM152 26.896L152.979 26.6899L152.812 25.896H152V26.896ZM151.28 26.896V25.896H150.478L150.304 26.6791L151.28 26.896ZM144.368 58V59H145.171L145.345 58.2169L144.368 58ZM122.84 58L121.872 58.2507L122.066 59H122.84V58ZM111.392 13.792L112.361 13.5413L112.166 12.792H111.392V13.792ZM108.512 13.792H107.512V14.792H108.512V13.792ZM108.512 1.984V0.983996H107.512V1.984H108.512ZM135.152 1.984H136.152V0.983996H135.152V1.984ZM135.152 13.792V14.792H136.152V13.792H135.152ZM132.416 13.792V12.792H131.252L131.428 13.9432L132.416 13.792ZM135.224 32.152L134.236 32.3032L134.366 33.152H135.224V32.152ZM135.944 32.152V33.152H136.743L136.92 32.3731L135.944 32.152ZM142.784 1.984V0.983996H141.986L141.809 1.76288L142.784 1.984ZM163.52 1.984L164.499 1.77846L164.332 0.983996H163.52V1.984ZM169.856 32.152L168.878 32.3575L169.045 33.152H169.856V32.152ZM170.576 32.152V33.152H171.435L171.565 32.3032L170.576 32.152ZM173.384 13.792L174.373 13.9432L174.549 12.792H173.384V13.792ZM170.648 13.792H169.648V14.792H170.648V13.792ZM170.648 2.984H193.688V0.983996H170.648V2.984ZM192.688 1.984V13.792H194.688V1.984H192.688ZM193.688 12.792H190.808V14.792H193.688V12.792ZM189.837 13.5562L179.109 57.7642L181.052 58.2358L191.78 14.0278L189.837 13.5562ZM180.08 57H158.552V59H180.08V57ZM159.531 57.7939L152.979 26.6899L151.022 27.1021L157.574 58.2061L159.531 57.7939ZM152 25.896H151.28V27.896H152V25.896ZM150.304 26.6791L143.392 57.7831L145.345 58.2169L152.257 27.1129L150.304 26.6791ZM144.368 57H122.84V59H144.368V57ZM123.809 57.7493L112.361 13.5413L110.424 14.0427L121.872 58.2507L123.809 57.7493ZM111.392 12.792H108.512V14.792H111.392V12.792ZM109.512 13.792V1.984H107.512V13.792H109.512ZM108.512 2.984H135.152V0.983996H108.512V2.984ZM134.152 1.984V13.792H136.152V1.984H134.152ZM135.152 12.792H132.416V14.792H135.152V12.792ZM131.428 13.9432L134.236 32.3032L136.213 32.0008L133.405 13.6408L131.428 13.9432ZM135.224 33.152H135.944V31.152H135.224V33.152ZM136.92 32.3731L143.76 2.20511L141.809 1.76288L134.969 31.9309L136.92 32.3731ZM142.784 2.984H163.52V0.983996H142.784V2.984ZM162.542 2.18954L168.878 32.3575L170.835 31.9465L164.499 1.77846L162.542 2.18954ZM169.856 33.152H170.576V31.152H169.856V33.152ZM171.565 32.3032L174.373 13.9432L172.396 13.6408L169.588 32.0008L171.565 32.3032ZM173.384 12.792H170.648V14.792H173.384V12.792ZM171.648 13.792V1.984H169.648V13.792H171.648ZM195.995 46.192V45.192H194.995V46.192H195.995ZM199.595 46.192V47.192H200.595V46.192H199.595ZM199.595 13.792H200.595V12.792H199.595V13.792ZM195.995 13.792H194.995V14.792H195.995V13.792ZM195.995 1.984V0.983996H194.995V1.984H195.995ZM243.227 5.8L242.612 6.58873L243.227 5.8ZM246.179 26.536L245.303 26.0534V26.0534L246.179 26.536ZM240.635 31.432L240.279 30.4972L239.563 30.7693L239.64 31.5315L240.635 31.432ZM240.707 32.152L239.712 32.2515L239.789 33.0207L240.552 33.14L240.707 32.152ZM247.619 46.192H246.619V47.192H247.619V46.192ZM251.003 46.192H252.003V45.192H251.003V46.192ZM251.003 58V59H252.003V58H251.003ZM228.179 58H227.179V59H228.179V58ZM227.315 36.832L226.438 37.3139L226.448 37.3304L226.457 37.3465L227.315 36.832ZM224.723 34.888L224.443 35.8481L224.453 35.851L224.723 34.888ZM219.755 34.384V33.384H218.755V34.384H219.755ZM219.755 46.192H218.755V47.192H219.755V46.192ZM224.507 46.192H225.507V45.192H224.507V46.192ZM224.507 58V59H225.507V58H224.507ZM195.995 58H194.995V59H195.995V58ZM226.739 24.52L226.009 23.8361L226.008 23.8377L226.739 24.52ZM226.739 14.944L225.986 15.6025L226.008 15.6276L226.032 15.6511L226.739 14.944ZM219.755 13.792V12.792H218.755V13.792H219.755ZM219.755 25.6H218.755V26.6H219.755V25.6ZM195.995 47.192H199.595V45.192H195.995V47.192ZM200.595 46.192V13.792H198.595V46.192H200.595ZM199.595 12.792H195.995V14.792H199.595V12.792ZM196.995 13.792V1.984H194.995V13.792H196.995ZM195.995 2.984H229.043V0.983996H195.995V2.984ZM229.043 2.984C235.118 2.984 239.592 4.23486 242.612 6.58873L243.841 5.01127C240.333 2.27714 235.352 0.983996 229.043 0.983996V2.984ZM242.612 6.58873C245.549 8.87793 247.123 12.6556 247.123 18.184H249.123C249.123 12.2884 247.432 7.81006 243.841 5.01127L242.612 6.58873ZM247.123 18.184C247.123 21.2645 246.503 23.8758 245.303 26.0534L247.055 27.0186C248.447 24.4922 249.123 21.5355 249.123 18.184H247.123ZM245.303 26.0534C244.116 28.2081 242.447 29.6736 240.279 30.4972L240.99 32.3668C243.622 31.3664 245.65 29.5679 247.055 27.0186L245.303 26.0534ZM239.64 31.5315L239.712 32.2515L241.702 32.0525L241.63 31.3325L239.64 31.5315ZM240.552 33.14C242.682 33.4728 244.158 34.2713 245.115 35.4471C246.078 36.6306 246.619 38.3246 246.619 40.648H248.619C248.619 38.0273 248.008 35.8334 246.666 34.1849C245.319 32.5287 243.339 31.5512 240.861 31.164L240.552 33.14ZM246.619 40.648V46.192H248.619V40.648H246.619ZM247.619 47.192H251.003V45.192H247.619V47.192ZM250.003 46.192V58H252.003V46.192H250.003ZM251.003 57H228.179V59H251.003V57ZM229.179 58V41.08H227.179V58H229.179ZM229.179 41.08C229.179 39.135 228.885 37.505 228.172 36.3175L226.457 37.3465C226.897 38.079 227.179 39.281 227.179 41.08H229.179ZM228.191 36.3501C227.515 35.1217 226.412 34.3226 224.992 33.925L224.453 35.851C225.433 36.1254 226.058 36.6223 226.438 37.3139L228.191 36.3501ZM225.003 33.928C223.715 33.5523 221.947 33.384 219.755 33.384V35.384C221.883 35.384 223.427 35.5517 224.443 35.848L225.003 33.928ZM218.755 34.384V46.192H220.755V34.384H218.755ZM219.755 47.192H224.507V45.192H219.755V47.192ZM223.507 46.192V58H225.507V46.192H223.507ZM224.507 57H195.995V59H224.507V57ZM196.995 58V46.192H194.995V58H196.995ZM223.643 26.6C225.195 26.6 226.541 26.1971 227.47 25.2023L226.008 23.8377C225.592 24.2829 224.875 24.6 223.643 24.6V26.6ZM227.468 25.2039C228.432 24.1759 228.819 22.7047 228.819 20.992H226.819C226.819 22.4473 226.485 23.3281 226.009 23.8361L227.468 25.2039ZM228.819 20.992V18.4H226.819V20.992H228.819ZM228.819 18.4C228.819 16.6943 228.435 15.226 227.446 14.2369L226.032 15.6511C226.482 16.102 226.819 16.9377 226.819 18.4H228.819ZM227.491 14.2855C226.567 13.2296 225.213 12.792 223.643 12.792V14.792C224.856 14.792 225.566 15.1224 225.986 15.6025L227.491 14.2855ZM223.643 12.792H219.755V14.792H223.643V12.792ZM218.755 13.792V25.6H220.755V13.792H218.755ZM219.755 26.6H223.643V24.6H219.755V26.6ZM76.0759 64.984V63.984H75.0759V64.984H76.0759ZM98.1799 64.984H99.1799V63.984H98.1799V64.984ZM98.1799 76.792V77.792H99.1799V76.792H98.1799ZM95.2999 76.792V75.792H94.7126L94.4266 76.3049L95.2999 76.792ZM81.4039 101.704L80.5306 101.217L80.4039 101.444V101.704H81.4039ZM81.4039 109.192H80.4039V110.192H81.4039V109.192ZM85.0039 109.192H86.0039V108.192H85.0039V109.192ZM85.0039 121V122H86.0039V121H85.0039ZM57.6439 121H56.6439V122H57.6439V121ZM57.6439 109.192V108.192H56.6439V109.192H57.6439ZM61.2439 109.192V110.192H62.2439V109.192H61.2439ZM61.2439 101.704H62.2439V101.437L62.1107 101.205L61.2439 101.704ZM46.9159 76.792L47.7827 76.2934L47.4943 75.792H46.9159V76.792ZM44.0359 76.792H43.0359V77.792H44.0359V76.792ZM44.0359 64.984V63.984H43.0359V64.984H44.0359ZM71.8999 64.984H72.8999V63.984H71.8999V64.984ZM71.8999 76.792V77.792H72.8999V76.792H71.8999ZM69.3799 76.792V75.792H67.9292L68.4453 77.1477L69.3799 76.792ZM73.6279 87.952L72.6933 88.3077L72.9385 88.952H73.6279V87.952ZM74.3479 87.952V88.952H75.0372L75.2825 88.3077L74.3479 87.952ZM78.5959 76.792L79.5305 77.1477L80.0465 75.792H78.5959V76.792ZM76.0759 76.792H75.0759V77.792H76.0759V76.792ZM76.0759 65.984H98.1799V63.984H76.0759V65.984ZM97.1799 64.984V76.792H99.1799V64.984H97.1799ZM98.1799 75.792H95.2999V77.792H98.1799V75.792ZM94.4266 76.3049L80.5306 101.217L82.2772 102.191L96.1732 77.2791L94.4266 76.3049ZM80.4039 101.704V109.192H82.4039V101.704H80.4039ZM81.4039 110.192H85.0039V108.192H81.4039V110.192ZM84.0039 109.192V121H86.0039V109.192H84.0039ZM85.0039 120H57.6439V122H85.0039V120ZM58.6439 121V109.192H56.6439V121H58.6439ZM57.6439 110.192H61.2439V108.192H57.6439V110.192ZM62.2439 109.192V101.704H60.2439V109.192H62.2439ZM62.1107 101.205L47.7827 76.2934L46.049 77.2906L60.377 102.203L62.1107 101.205ZM46.9159 75.792H44.0359V77.792H46.9159V75.792ZM45.0359 76.792V64.984H43.0359V76.792H45.0359ZM44.0359 65.984H71.8999V63.984H44.0359V65.984ZM70.8999 64.984V76.792H72.8999V64.984H70.8999ZM71.8999 75.792H69.3799V77.792H71.8999V75.792ZM68.4453 77.1477L72.6933 88.3077L74.5625 87.5963L70.3145 76.4363L68.4453 77.1477ZM73.6279 88.952H74.3479V86.952H73.6279V88.952ZM75.2825 88.3077L79.5305 77.1477L77.6613 76.4363L73.4133 87.5963L75.2825 88.3077ZM78.5959 75.792H76.0759V77.792H78.5959V75.792ZM77.0759 76.792V64.984H75.0759V76.792H77.0759ZM105.027 115.096L104.33 115.814L104.334 115.817L105.027 115.096ZM105.027 70.888L104.334 70.1666L104.33 70.1701L105.027 70.888ZM145.707 70.888L145.01 71.6059L145.014 71.6094L145.707 70.888ZM145.707 115.096L145.014 114.375L145.01 114.378L145.707 115.096ZM129.075 107.896L129.802 108.583L129.075 107.896ZM129.075 78.088L129.802 77.4014L129.075 78.088ZM121.731 78.088L122.458 78.7746L121.731 78.088ZM121.731 107.968L121.004 108.655L121.013 108.665L121.024 108.675L121.731 107.968ZM125.403 121.008C116.792 121.008 110.279 118.752 105.719 114.375L104.334 115.817C109.374 120.656 116.446 123.008 125.403 123.008V121.008ZM105.723 114.378C101.247 110.038 98.8986 102.991 98.8986 92.992H96.8986C96.8986 103.249 99.302 110.938 104.33 115.814L105.723 114.378ZM98.8986 92.992C98.8986 82.9933 101.247 75.9458 105.723 71.6059L104.33 70.1701C99.302 75.0462 96.8986 82.7347 96.8986 92.992H98.8986ZM105.719 71.6094C110.279 67.2315 116.792 64.976 125.403 64.976V62.976C116.446 62.976 109.374 65.3285 104.334 70.1666L105.719 71.6094ZM125.403 64.976C134.014 64.976 140.5 67.2318 145.01 71.6059L146.403 70.1701C141.41 65.3282 134.359 62.976 125.403 62.976V64.976ZM145.014 71.6094C149.535 75.9497 151.907 82.9957 151.907 92.992H153.907C153.907 82.7323 151.478 75.0423 146.399 70.1666L145.014 71.6094ZM151.907 92.992C151.907 102.988 149.535 110.034 145.014 114.375L146.399 115.817C151.478 110.942 153.907 103.252 153.907 92.992H151.907ZM145.01 114.378C140.5 118.752 134.014 121.008 125.403 121.008V123.008C134.359 123.008 141.41 120.656 146.403 115.814L145.01 114.378ZM125.403 110.192C127.204 110.192 128.735 109.712 129.802 108.583L128.348 107.209C127.783 107.808 126.865 108.192 125.403 108.192V110.192ZM129.802 108.583C130.867 107.455 131.299 105.811 131.299 103.864H129.299C129.299 105.565 128.915 106.609 128.348 107.209L129.802 108.583ZM131.299 103.864V82.12H129.299V103.864H131.299ZM131.299 82.12C131.299 80.1732 130.867 78.529 129.802 77.4014L128.348 78.7746C128.915 79.375 129.299 80.4188 129.299 82.12H131.299ZM129.802 77.4014C128.735 76.2716 127.204 75.792 125.403 75.792V77.792C126.865 77.792 127.783 78.1764 128.348 78.7746L129.802 77.4014ZM125.403 75.792C123.601 75.792 122.071 76.2716 121.004 77.4014L122.458 78.7746C123.023 78.1764 123.94 77.792 125.403 77.792V75.792ZM121.004 77.4014C119.939 78.529 119.507 80.1732 119.507 82.12H121.507C121.507 80.4188 121.891 79.375 122.458 78.7746L121.004 77.4014ZM119.507 82.12V103.864H121.507V82.12H119.507ZM119.507 103.864C119.507 105.85 119.935 107.523 121.004 108.655L122.458 107.281C121.894 106.685 121.507 105.622 121.507 103.864H119.507ZM121.024 108.675C122.093 109.745 123.616 110.192 125.403 110.192V108.192C123.925 108.192 123 107.823 122.438 107.261L121.024 108.675ZM164.786 117.04L164.156 117.816L164.16 117.82L164.786 117.04ZM158.666 76.792H159.666V75.792H158.666V76.792ZM155.066 76.792H154.066V77.792H155.066V76.792ZM155.066 64.984V63.984H154.066V64.984H155.066ZM181.706 64.984H182.706V63.984H181.706V64.984ZM181.706 76.792V77.792H182.706V76.792H181.706ZM178.826 76.792V75.792H177.826V76.792H178.826ZM179.834 108.112L179.081 108.771L179.103 108.796L179.127 108.819L179.834 108.112ZM186.098 108.112L185.369 107.428L185.367 107.43L186.098 108.112ZM187.178 76.792H188.178V75.792H187.178V76.792ZM184.298 76.792H183.298V77.792H184.298V76.792ZM184.298 64.984V63.984H183.298V64.984H184.298ZM208.994 64.984H209.994V63.984H208.994V64.984ZM208.994 76.792V77.792H209.994V76.792H208.994ZM205.394 76.792V75.792H204.394V76.792H205.394ZM199.418 117.04L198.779 116.271L199.418 117.04ZM182.282 121.008C174.879 121.008 169.301 119.38 165.412 116.26L164.16 117.82C168.527 121.324 174.613 123.008 182.282 123.008V121.008ZM165.416 116.264C161.656 113.211 159.666 108.182 159.666 100.912H157.666C157.666 108.522 159.756 114.245 164.156 117.816L165.416 116.264ZM159.666 100.912V76.792H157.666V100.912H159.666ZM158.666 75.792H155.066V77.792H158.666V75.792ZM156.066 76.792V64.984H154.066V76.792H156.066ZM155.066 65.984H181.706V63.984H155.066V65.984ZM180.706 64.984V76.792H182.706V64.984H180.706ZM181.706 75.792H178.826V77.792H181.706V75.792ZM177.826 76.792V104.584H179.826V76.792H177.826ZM177.826 104.584C177.826 106.282 178.182 107.743 179.081 108.771L180.587 107.453C180.142 106.945 179.826 106.054 179.826 104.584H177.826ZM179.127 108.819C180.095 109.787 181.445 110.192 183.002 110.192V108.192C181.776 108.192 181.013 107.877 180.541 107.405L179.127 108.819ZM183.002 110.192C184.554 110.192 185.901 109.789 186.829 108.794L185.367 107.43C184.951 107.875 184.234 108.192 183.002 108.192V110.192ZM186.828 108.796C187.791 107.768 188.178 106.297 188.178 104.584H186.178C186.178 106.039 185.845 106.92 185.369 107.428L186.828 108.796ZM188.178 104.584V76.792H186.178V104.584H188.178ZM187.178 75.792H184.298V77.792H187.178V75.792ZM185.298 76.792V64.984H183.298V76.792H185.298ZM184.298 65.984H208.994V63.984H184.298V65.984ZM207.994 64.984V76.792H209.994V64.984H207.994ZM208.994 75.792H205.394V77.792H208.994V75.792ZM204.394 76.792V100.912H206.394V76.792H204.394ZM204.394 100.912C204.394 108.189 202.448 113.221 198.779 116.271L200.057 117.809C204.356 114.235 206.394 108.515 206.394 100.912H204.394ZM198.779 116.271C195.038 119.38 189.588 121.008 182.282 121.008V123.008C189.856 123.008 195.83 121.324 200.057 117.809L198.779 116.271ZM141.496 145.408V146.408H142.496V145.408H141.496ZM129.112 145.408H128.112V146.408H129.112V145.408ZM129.112 139.792H130.112V138.792H129.112V139.792ZM124.504 139.792V138.792H123.504V139.792H124.504ZM124.504 172.192H123.504V173.192H124.504V172.192ZM129.544 172.192H130.544V171.192H129.544V172.192ZM129.544 184V185H130.544V184H129.544ZM99.3037 184H98.3037V185H99.3037V184ZM99.3037 172.192V171.192H98.3037V172.192H99.3037ZM104.344 172.192V173.192H105.344V172.192H104.344ZM104.344 139.792H105.344V138.792H104.344V139.792ZM99.7357 139.792V138.792H98.7357V139.792H99.7357ZM99.7357 145.408V146.408H100.736V145.408H99.7357ZM87.3518 145.408H86.3518V146.408H87.3518V145.408ZM87.3518 127.984V126.984H86.3518V127.984H87.3518ZM141.496 127.984H142.496V126.984H141.496V127.984ZM141.496 144.408H129.112V146.408H141.496V144.408ZM130.112 145.408V139.792H128.112V145.408H130.112ZM129.112 138.792H124.504V140.792H129.112V138.792ZM123.504 139.792V172.192H125.504V139.792H123.504ZM124.504 173.192H129.544V171.192H124.504V173.192ZM128.544 172.192V184H130.544V172.192H128.544ZM129.544 183H99.3037V185H129.544V183ZM100.304 184V172.192H98.3037V184H100.304ZM99.3037 173.192H104.344V171.192H99.3037V173.192ZM105.344 172.192V139.792H103.344V172.192H105.344ZM104.344 138.792H99.7357V140.792H104.344V138.792ZM98.7357 139.792V145.408H100.736V139.792H98.7357ZM99.7357 144.408H87.3518V146.408H99.7357V144.408ZM88.3518 145.408V127.984H86.3518V145.408H88.3518ZM87.3518 128.984H141.496V126.984H87.3518V128.984ZM140.496 127.984V145.408H142.496V127.984H140.496ZM201.563 139.792V140.792H202.563V139.792H201.563ZM197.963 139.792V138.792H196.963V139.792H197.963ZM197.963 172.192H196.963V173.192H197.963V172.192ZM201.563 172.192H202.563V171.192H201.563V172.192ZM201.563 184V185H202.563V184H201.563ZM174.347 184H173.347V185H174.347V184ZM174.347 172.192V171.192H173.347V172.192H174.347ZM177.803 172.192V173.192H178.803V172.192H177.803ZM177.803 160.312H178.803V159.312H177.803V160.312ZM167.723 160.312V159.312H166.723V160.312H167.723ZM167.723 172.192H166.723V173.192H167.723V172.192ZM171.179 172.192H172.179V171.192H171.179V172.192ZM171.179 184V185H172.179V184H171.179ZM143.963 184H142.963V185H143.963V184ZM143.963 172.192V171.192H142.963V172.192H143.963ZM147.563 172.192V173.192H148.563V172.192H147.563ZM147.563 139.792H148.563V138.792H147.563V139.792ZM143.963 139.792H142.963V140.792H143.963V139.792ZM143.963 127.984V126.984H142.963V127.984H143.963ZM171.179 127.984H172.179V126.984H171.179V127.984ZM171.179 139.792V140.792H172.179V139.792H171.179ZM167.723 139.792V138.792H166.723V139.792H167.723ZM167.723 150.736H166.723V151.736H167.723V150.736ZM177.803 150.736V151.736H178.803V150.736H177.803ZM177.803 139.792H178.803V138.792H177.803V139.792ZM174.347 139.792H173.347V140.792H174.347V139.792ZM174.347 127.984V126.984H173.347V127.984H174.347ZM201.563 127.984H202.563V126.984H201.563V127.984ZM201.563 138.792H197.963V140.792H201.563V138.792ZM196.963 139.792V172.192H198.963V139.792H196.963ZM197.963 173.192H201.563V171.192H197.963V173.192ZM200.563 172.192V184H202.563V172.192H200.563ZM201.563 183H174.347V185H201.563V183ZM175.347 184V172.192H173.347V184H175.347ZM174.347 173.192H177.803V171.192H174.347V173.192ZM178.803 172.192V160.312H176.803V172.192H178.803ZM177.803 159.312H167.723V161.312H177.803V159.312ZM166.723 160.312V172.192H168.723V160.312H166.723ZM167.723 173.192H171.179V171.192H167.723V173.192ZM170.179 172.192V184H172.179V172.192H170.179ZM171.179 183H143.963V185H171.179V183ZM144.963 184V172.192H142.963V184H144.963ZM143.963 173.192H147.563V171.192H143.963V173.192ZM148.563 172.192V139.792H146.563V172.192H148.563ZM147.563 138.792H143.963V140.792H147.563V138.792ZM144.963 139.792V127.984H142.963V139.792H144.963ZM143.963 128.984H171.179V126.984H143.963V128.984ZM170.179 127.984V139.792H172.179V127.984H170.179ZM171.179 138.792H167.723V140.792H171.179V138.792ZM166.723 139.792V150.736H168.723V139.792H166.723ZM167.723 151.736H177.803V149.736H167.723V151.736ZM178.803 150.736V139.792H176.803V150.736H178.803ZM177.803 138.792H174.347V140.792H177.803V138.792ZM175.347 139.792V127.984H173.347V139.792H175.347ZM174.347 128.984H201.563V126.984H174.347V128.984ZM200.563 127.984V139.792H202.563V127.984H200.563ZM204.432 184H203.432V185H204.432V184ZM204.432 172.192V171.192H203.432V172.192H204.432ZM208.032 172.192V173.192H209.032V172.192H208.032ZM208.032 139.792H209.032V138.792H208.032V139.792ZM204.432 139.792H203.432V140.792H204.432V139.792ZM204.432 127.984V126.984H203.432V127.984H204.432ZM253.032 127.984H254.032V126.984H253.032V127.984ZM253.032 149.728V150.728H254.032V149.728H253.032ZM236.904 149.728H235.904V150.728H236.904V149.728ZM236.904 139.792H237.904V138.792H236.904V139.792ZM228.192 139.792V138.792H227.192V139.792H228.192ZM228.192 151.168H227.192V152.168H228.192V151.168ZM234.528 151.168H235.528V150.168H234.528V151.168ZM234.528 159.376V160.376H235.528V159.376H234.528ZM228.192 159.376V158.376H227.192V159.376H228.192ZM228.192 172.192H227.192V173.192H228.192V172.192ZM236.904 172.192V173.192H237.904V172.192H236.904ZM236.904 160.816V159.816H235.904V160.816H236.904ZM253.032 160.816H254.032V159.816H253.032V160.816ZM253.032 184V185H254.032V184H253.032ZM205.432 184V172.192H203.432V184H205.432ZM204.432 173.192H208.032V171.192H204.432V173.192ZM209.032 172.192V139.792H207.032V172.192H209.032ZM208.032 138.792H204.432V140.792H208.032V138.792ZM205.432 139.792V127.984H203.432V139.792H205.432ZM204.432 128.984H253.032V126.984H204.432V128.984ZM252.032 127.984V149.728H254.032V127.984H252.032ZM253.032 148.728H236.904V150.728H253.032V148.728ZM237.904 149.728V139.792H235.904V149.728H237.904ZM236.904 138.792H228.192V140.792H236.904V138.792ZM227.192 139.792V151.168H229.192V139.792H227.192ZM228.192 152.168H234.528V150.168H228.192V152.168ZM233.528 151.168V159.376H235.528V151.168H233.528ZM234.528 158.376H228.192V160.376H234.528V158.376ZM227.192 159.376V172.192H229.192V159.376H227.192ZM228.192 173.192H236.904V171.192H228.192V173.192ZM237.904 172.192V160.816H235.904V172.192H237.904ZM236.904 161.816H253.032V159.816H236.904V161.816ZM252.032 160.816V184H254.032V160.816H252.032ZM253.032 183H204.432V185H253.032V183ZM137.652 241.096L136.955 241.814L136.959 241.817L137.652 241.096ZM137.652 196.888L136.959 196.167L136.955 196.17L137.652 196.888ZM178.332 196.888L177.635 197.606L177.639 197.609L178.332 196.888ZM178.332 241.096L177.639 240.375L177.635 240.378L178.332 241.096ZM161.7 233.896L162.427 234.583L161.7 233.896ZM161.7 204.088L162.427 203.401L161.7 204.088ZM154.356 204.088L155.083 204.775L154.356 204.088ZM154.356 233.968L153.629 234.655L153.638 234.665L153.649 234.675L154.356 233.968ZM158.028 247.008C149.417 247.008 142.904 244.752 138.344 240.375L136.959 241.817C141.999 246.656 149.071 249.008 158.028 249.008V247.008ZM138.348 240.378C133.872 236.038 131.524 228.991 131.524 218.992H129.524C129.524 229.249 131.927 236.938 136.955 241.814L138.348 240.378ZM131.524 218.992C131.524 208.993 133.872 201.946 138.348 197.606L136.955 196.17C131.927 201.046 129.524 208.735 129.524 218.992H131.524ZM138.344 197.609C142.904 193.232 149.417 190.976 158.028 190.976V188.976C149.071 188.976 141.999 191.328 136.959 196.167L138.344 197.609ZM158.028 190.976C166.639 190.976 173.125 193.232 177.635 197.606L179.028 196.17C174.035 191.328 166.984 188.976 158.028 188.976V190.976ZM177.639 197.609C182.16 201.95 184.532 208.996 184.532 218.992H186.532C186.532 208.732 184.103 201.042 179.024 196.167L177.639 197.609ZM184.532 218.992C184.532 228.988 182.16 236.034 177.639 240.375L179.024 241.817C184.103 236.942 186.532 229.252 186.532 218.992H184.532ZM177.635 240.378C173.125 244.752 166.639 247.008 158.028 247.008V249.008C166.984 249.008 174.035 246.656 179.028 241.814L177.635 240.378ZM158.028 236.192C159.829 236.192 161.36 235.712 162.427 234.583L160.973 233.209C160.408 233.808 159.49 234.192 158.028 234.192V236.192ZM162.427 234.583C163.492 233.455 163.924 231.811 163.924 229.864H161.924C161.924 231.565 161.54 232.609 160.973 233.209L162.427 234.583ZM163.924 229.864V208.12H161.924V229.864H163.924ZM163.924 208.12C163.924 206.173 163.492 204.529 162.427 203.401L160.973 204.775C161.54 205.375 161.924 206.419 161.924 208.12H163.924ZM162.427 203.401C161.36 202.272 159.829 201.792 158.028 201.792V203.792C159.49 203.792 160.408 204.176 160.973 204.775L162.427 203.401ZM158.028 201.792C156.226 201.792 154.696 202.272 153.629 203.401L155.083 204.775C155.648 204.176 156.565 203.792 158.028 203.792V201.792ZM153.629 203.401C152.564 204.529 152.132 206.173 152.132 208.12H154.132C154.132 206.419 154.516 205.375 155.083 204.775L153.629 203.401ZM152.132 208.12V229.864H154.132V208.12H152.132ZM152.132 229.864C152.132 231.85 152.56 233.523 153.629 234.655L155.083 233.281C154.519 232.685 154.132 231.622 154.132 229.864H152.132ZM153.649 234.675C154.718 235.745 156.241 236.192 158.028 236.192V234.192C156.55 234.192 155.625 233.823 155.063 233.261L153.649 234.675ZM229.451 190.984V189.984H228.451V190.984H229.451ZM253.067 190.984H254.067V189.984H253.067V190.984ZM253.067 202.792V203.792H254.067V202.792H253.067ZM249.467 202.792V201.792H248.467V202.792H249.467ZM249.467 247V248H250.467V247H249.467ZM229.235 247L228.396 247.545L228.692 248H229.235V247ZM208.139 214.528L208.978 213.983L207.139 211.153V214.528H208.139ZM208.139 235.192H207.139V236.192H208.139V235.192ZM211.595 235.192H212.595V234.192H211.595V235.192ZM211.595 247V248H212.595V247H211.595ZM187.979 247H186.979V248H187.979V247ZM187.979 235.192V234.192H186.979V235.192H187.979ZM191.579 235.192V236.192H192.579V235.192H191.579ZM191.579 202.792H192.579V201.792H191.579V202.792ZM187.979 202.792H186.979V203.792H187.979V202.792ZM187.979 190.984V189.984H186.979V190.984H187.979ZM213.971 190.984L214.807 190.436L214.511 189.984H213.971V190.984ZM232.907 219.856L232.071 220.404L233.907 223.204V219.856H232.907ZM232.907 202.792H233.907V201.792H232.907V202.792ZM229.451 202.792H228.451V203.792H229.451V202.792ZM229.451 191.984H253.067V189.984H229.451V191.984ZM252.067 190.984V202.792H254.067V190.984H252.067ZM253.067 201.792H249.467V203.792H253.067V201.792ZM248.467 202.792V247H250.467V202.792H248.467ZM249.467 246H229.235V248H249.467V246ZM230.074 246.455L208.978 213.983L207.3 215.073L228.396 247.545L230.074 246.455ZM207.139 214.528V235.192H209.139V214.528H207.139ZM208.139 236.192H211.595V234.192H208.139V236.192ZM210.595 235.192V247H212.595V235.192H210.595ZM211.595 246H187.979V248H211.595V246ZM188.979 247V235.192H186.979V247H188.979ZM187.979 236.192H191.579V234.192H187.979V236.192ZM192.579 235.192V202.792H190.579V235.192H192.579ZM191.579 201.792H187.979V203.792H191.579V201.792ZM188.979 202.792V190.984H186.979V202.792H188.979ZM187.979 191.984H213.971V189.984H187.979V191.984ZM213.135 191.532L232.071 220.404L233.743 219.308L214.807 190.436L213.135 191.532ZM233.907 219.856V202.792H231.907V219.856H233.907ZM232.907 201.792H229.451V203.792H232.907V201.792ZM230.451 202.792V190.984H228.451V202.792H230.451ZM255.831 247H254.831V248H255.831V247ZM255.831 235.192V234.192H254.831V235.192H255.831ZM259.431 235.192V236.192H260.431V235.192H259.431ZM259.431 202.792H260.431V201.792H259.431V202.792ZM255.831 202.792H254.831V203.792H255.831V202.792ZM255.831 190.984V189.984H254.831V190.984H255.831ZM304.431 190.984H305.431V189.984H304.431V190.984ZM304.431 212.728V213.728H305.431V212.728H304.431ZM288.303 212.728H287.303V213.728H288.303V212.728ZM288.303 202.792H289.303V201.792H288.303V202.792ZM279.591 202.792V201.792H278.591V202.792H279.591ZM279.591 214.168H278.591V215.168H279.591V214.168ZM285.927 214.168H286.927V213.168H285.927V214.168ZM285.927 222.376V223.376H286.927V222.376H285.927ZM279.591 222.376V221.376H278.591V222.376H279.591ZM279.591 235.192H278.591V236.192H279.591V235.192ZM288.303 235.192V236.192H289.303V235.192H288.303ZM288.303 223.816V222.816H287.303V223.816H288.303ZM304.431 223.816H305.431V222.816H304.431V223.816ZM304.431 247V248H305.431V247H304.431ZM256.831 247V235.192H254.831V247H256.831ZM255.831 236.192H259.431V234.192H255.831V236.192ZM260.431 235.192V202.792H258.431V235.192H260.431ZM259.431 201.792H255.831V203.792H259.431V201.792ZM256.831 202.792V190.984H254.831V202.792H256.831ZM255.831 191.984H304.431V189.984H255.831V191.984ZM303.431 190.984V212.728H305.431V190.984H303.431ZM304.431 211.728H288.303V213.728H304.431V211.728ZM289.303 212.728V202.792H287.303V212.728H289.303ZM288.303 201.792H279.591V203.792H288.303V201.792ZM278.591 202.792V214.168H280.591V202.792H278.591ZM279.591 215.168H285.927V213.168H279.591V215.168ZM284.927 214.168V222.376H286.927V214.168H284.927ZM285.927 221.376H279.591V223.376H285.927V221.376ZM278.591 222.376V235.192H280.591V222.376H278.591ZM279.591 236.192H288.303V234.192H279.591V236.192ZM289.303 235.192V223.816H287.303V235.192H289.303ZM288.303 224.816H304.431V222.816H288.303V224.816ZM303.431 223.816V247H305.431V223.816H303.431ZM304.431 246H255.831V248H304.431V246ZM317.887 222.304L316.992 221.857L316.987 221.868L317.887 222.304ZM320.767 218.344L320.092 217.606L320.767 218.344ZM325.015 215.032L324.444 214.211L325.015 215.032ZM328.831 211.936L328.104 211.249L328.831 211.936ZM318.175 207.256L318.471 208.211L318.175 207.256ZM310.543 210.208L309.575 210.459L309.88 211.634L310.975 211.11L310.543 210.208ZM306.727 195.52L306.302 194.615L305.55 194.968L305.759 195.771L306.727 195.52ZM317.743 191.632L317.998 192.599L317.743 191.632ZM340.855 191.848L340.473 192.772L340.482 192.776L340.491 192.779L340.855 191.848ZM347.911 197.032L347.101 197.618L347.911 197.032ZM349.063 211.432L348.164 210.995L348.159 211.004L348.154 211.014L349.063 211.432ZM346.039 215.824L346.716 216.56L346.724 216.553L346.731 216.545L346.039 215.824ZM341.287 219.496L340.723 218.67L340.716 218.675L340.71 218.679L341.287 219.496ZM337.327 222.52L336.676 221.761L336.667 221.769L336.658 221.777L337.327 222.52ZM334.879 225.688L333.998 225.214L333.991 225.227L333.984 225.241L334.879 225.688ZM333.943 231.232V232.232H334.943V231.232H333.943ZM316.735 231.232H315.735V232.232H316.735V231.232ZM316.735 247H315.735V248H316.735V247ZM316.735 235.192V234.192H315.735V235.192H316.735ZM333.871 235.192H334.871V234.192H333.871V235.192ZM333.871 247V248H334.871V247H333.871ZM317.735 227.92C317.735 225.877 318.098 224.161 318.787 222.74L316.987 221.868C316.14 223.615 315.735 225.643 315.735 227.92H317.735ZM318.781 222.751C319.554 221.206 320.445 219.992 321.441 219.082L320.092 217.606C318.88 218.712 317.851 220.138 316.992 221.857L318.781 222.751ZM321.441 219.082C322.502 218.114 323.88 217.037 325.585 215.853L324.444 214.211C322.693 215.427 321.239 216.558 320.092 217.606L321.441 219.082ZM325.585 215.853C327.334 214.639 328.671 213.561 329.558 212.623L328.104 211.249C327.358 212.039 326.152 213.025 324.444 214.211L325.585 215.853ZM329.558 212.623C330.551 211.571 331.055 210.293 331.055 208.84H329.055C329.055 209.787 328.743 210.573 328.104 211.249L329.558 212.623ZM331.055 208.84C331.055 207.589 330.562 206.536 329.529 205.848C328.569 205.208 327.254 204.96 325.735 204.96V206.96C327.095 206.96 327.941 207.192 328.42 207.512C328.828 207.784 329.055 208.171 329.055 208.84H331.055ZM325.735 204.96C323.354 204.96 320.732 205.415 317.878 206.301L318.471 208.211C321.186 207.369 323.604 206.96 325.735 206.96V204.96ZM317.878 206.301C315.054 207.177 312.464 208.178 310.111 209.306L310.975 211.11C313.229 210.03 315.727 209.063 318.471 208.211L317.878 206.301ZM311.511 209.957L307.695 195.269L305.759 195.771L309.575 210.459L311.511 209.957ZM307.152 196.425C310.254 194.968 313.868 193.691 317.998 192.599L317.487 190.665C313.266 191.781 309.535 193.096 306.302 194.615L307.152 196.425ZM317.998 192.599C322.095 191.516 326.161 190.976 330.199 190.976V188.976C325.981 188.976 321.743 189.54 317.487 190.665L317.998 192.599ZM330.199 190.976C334.179 190.976 337.596 191.585 340.473 192.772L341.236 190.924C338.065 189.615 334.378 188.976 330.199 188.976V190.976ZM340.491 192.779C343.418 193.923 345.6 195.544 347.101 197.618L348.721 196.446C346.957 194.008 344.436 192.173 341.219 190.917L340.491 192.779ZM347.101 197.618C348.6 199.692 349.359 202.099 349.359 204.88H351.359C351.359 201.709 350.485 198.884 348.721 196.446L347.101 197.618ZM349.359 204.88C349.359 207.366 348.944 209.391 348.164 210.995L349.962 211.869C350.91 209.921 351.359 207.578 351.359 204.88H349.359ZM348.154 211.014C347.381 212.696 346.441 214.051 345.346 215.103L346.731 216.545C348.036 215.293 349.112 213.72 349.971 211.85L348.154 211.014ZM345.362 215.088C344.209 216.148 342.667 217.342 340.723 218.67L341.851 220.322C343.842 218.962 345.468 217.708 346.716 216.56L345.362 215.088ZM340.71 218.679C339.064 219.841 337.716 220.869 336.676 221.761L337.978 223.279C338.953 222.443 340.246 221.455 341.863 220.313L340.71 218.679ZM336.658 221.777C335.604 222.725 334.719 223.875 333.998 225.214L335.759 226.162C336.382 225.005 337.129 224.043 337.996 223.263L336.658 221.777ZM333.984 225.241C333.276 226.657 332.943 228.305 332.943 230.152H334.943C334.943 228.543 335.233 227.215 335.773 226.135L333.984 225.241ZM332.943 230.152V231.232H334.943V230.152H332.943ZM333.943 230.232H316.735V232.232H333.943V230.232ZM317.735 231.232V227.92H315.735V231.232H317.735ZM317.735 247V235.192H315.735V247H317.735ZM316.735 236.192H333.871V234.192H316.735V236.192ZM332.871 235.192V247H334.871V235.192H332.871ZM333.871 246H316.735V248H333.871V246Z" fill="#C2639C"/>
</svg>
