<svg viewBox="0 0 375 498" fill="none" style="opacity: 0.5;" class="svg-content" xmlns="http://www.w3.org/2000/svg">
    <ellipse rx="42.8998" ry="56.2967" transform="matrix(0.427955 -0.9038 0.826467 0.562985 87.9861 249.981)" fill="#ED79BF"/>
    <path opacity="0.5" fill-rule="evenodd" clip-rule="evenodd" d="M114.447 217.56C134.573 235.629 143.521 262.651 134.513 281.675C126.008 299.639 104.193 304.763 82.2151 295.614C93.0146 297.343 105.787 297.651 117.5 287.5C134.119 273.097 122.607 233.859 114.447 217.56Z" fill="#7C7B7C" fill-opacity="0.9"/>
    <path opacity="0.5" d="M48.6974 254.604C39.9121 233.348 48.6974 200 75.9922 205.451C87.3845 207.727 45.2928 231.313 48.6974 254.604Z" fill="#FEFEFE" fill-opacity="0.9"/>
    <ellipse rx="41.3331" ry="57.9598" transform="matrix(0.671827 -0.740708 0.67702 0.735965 112.325 142.028)" fill="#ED79BF"/>
    <path opacity="0.5" fill-rule="evenodd" clip-rule="evenodd" d="M145.61 118.073C162.532 140.825 165.502 169.318 151.565 184.684C142.218 194.989 127.425 197.011 112.391 191.687C125.104 191.143 138.459 185.264 148 167C154.758 154.062 149.782 133.493 145.61 118.073Z" fill="#7C7B7C" fill-opacity="0.9"/>
    <path opacity="0.5" d="M71.0722 133.814C60.6469 104.628 89.4561 84.3348 109.038 96.0061C114.819 99.4523 73.431 140.418 71.0722 133.814Z" fill="#FEFEFE"/>
    <path opacity="0.9" d="M81.4238 110.672C80.6325 101.44 89.2906 93.9326 93.5429 97.1595C94.7986 98.1123 81.9869 117.242 81.4238 110.672Z" fill="white"/>
    <ellipse rx="41.3331" ry="57.9598" transform="matrix(-0.977385 0.211466 0.298854 0.954299 202.37 90.0398)" fill="#ED79BF"/>
    <path opacity="0.5" fill-rule="evenodd" clip-rule="evenodd" d="M241.423 77.3521C240.355 98.1022 231.338 125.573 217 135.5C214.234 137.415 211.383 139.414 208.509 141.43C206.935 142.534 205.354 143.643 203.775 144.746C209.105 146.206 214.494 146.475 219.692 145.351C242.003 140.524 252.335 111.847 242.769 81.2993C242.351 79.9646 241.902 78.6484 241.423 77.3521Z" fill="#7C7B7C" fill-opacity="0.9"/>
    <path opacity="0.5" d="M166.154 99.9999C148.253 44.3571 194 33.4272 194 37.8986C194 48.3316 170.132 57.2742 166.154 99.9999Z" fill="#FEFEFE"/>
    <path opacity="0.9" d="M164.58 83.7255C162.208 75.6231 166.098 65.3051 169.414 66.5428C170.393 66.9083 166.268 89.4911 164.58 83.7255Z" fill="white"/>
    <ellipse rx="42.8998" ry="56.2967" transform="matrix(-0.996691 -0.0812801 0.0743255 0.997234 307.331 122.828)" fill="#ED79BF"/>
    <path opacity="0.5" fill-rule="evenodd" clip-rule="evenodd" d="M347.892 112.923C344.876 129.96 339.205 147.611 329.5 158.5C322.616 166.224 308.115 170.111 292.77 172.06C298.587 175.984 304.951 178.434 311.515 178.969C335.13 180.895 352.4 157.321 350.089 126.315C349.747 121.735 348.998 117.249 347.892 112.923Z" fill="#7C7B7C" fill-opacity="0.9"/>
    <path opacity="0.5" d="M269 127C266.5 88.9999 284.349 65.2808 303.5 69.9999C314.794 72.7829 288 61.4999 269 127Z" fill="#FEFEFE"/>
    <path d="M195.702 372.048C235.297 395.081 272.679 354.377 286.421 331.145C313.411 330.86 367.353 318.839 367.203 273.032C367.016 215.773 276.443 140.584 201.411 183.904C126.379 227.223 146.209 343.257 195.702 372.048Z" fill="#ED79BF"/>
    <path opacity="0.5" fill-rule="evenodd" clip-rule="evenodd" d="M189.721 368.042C190.807 368.378 191.9 368.698 193 369C236.913 381.054 268.222 336.764 277.991 322.945C279.568 320.714 280.583 319.278 281 319C281.21 318.86 282.252 318.638 283.933 318.28C301.506 314.536 388.887 295.918 325 201L325 199.87C350.22 220.292 367.122 248.33 367.203 273.032C367.353 318.839 313.411 330.86 286.421 331.145C272.679 354.377 235.297 395.081 195.702 372.048C193.656 370.858 191.661 369.519 189.721 368.042Z" fill="#7C7B7C" fill-opacity="0.9"/>
    <path opacity="0.5" d="M175 219C142.089 271.658 169.333 327.667 181 344C160.071 261 265 199 250 180C232 168.667 190 195 175 219Z" fill="#EFEFEF" fill-opacity="0.9"/>
    <path opacity="0.9" d="M209.161 215.206C198.304 228.001 189.121 236.059 196.891 215.206C207.388 187.031 226.161 195.17 209.161 215.206Z" fill="#FEFEFE"/>
</svg>