<svg viewBox="0 0 41 59" fill="none" xmlns="http://www.w3.org/2000/svg">
<path d="M0 7.5641H41L35 59H6.75L0 7.5641Z" fill="#ff4a4a" fill-opacity="0.75"/>
<path d="M15.1621 9.58119H25.7354L23.2608 56.4786H17.4118L15.1621 9.58119Z" fill="#ff4a4a" fill-opacity="0.5"/>
<path d="M27.7426 9.5812L38.25 9.58119L32 56.4615L25.2128 56.4615L27.7426 9.5812Z" fill="#ff4a4a" fill-opacity="0.5"/>
<path d="M13.2574 9.58119L2.50001 9.58119L9 56.4614L15.7872 56.4614L13.2574 9.58119Z" fill="#ff4a4a" fill-opacity="0.5"/>
<path fill-rule="evenodd" clip-rule="evenodd" d="M1.25 6.30342C1.25 4.22699 2.90915 2.5414 4.96332 2.52154C5.47807 1.05251 6.86716 0 8.5 0C9.26217 0 9.97123 0.229321 10.5631 0.623281C10.8625 0.545592 11.1765 0.504273 11.5 0.504273C12.2353 0.504273 12.9212 0.717704 13.5 1.08649C14.0789 0.717705 14.7647 0.504273 15.5 0.504273C15.5416 0.504273 15.5831 0.504958 15.6244 0.506316C16.1761 0.184307 16.8167 0 17.5 0C18.2353 0 18.9211 0.213431 19.5 0.582217C20.0788 0.213431 20.7647 0 21.5 0C22.5865 0 23.5651 0.46604 24.25 1.21073C24.9349 0.46604 25.9135 0 27 0C28.2147 0 29.2945 0.582495 29.9798 1.48564C30.6456 0.875867 31.5298 0.504273 32.5 0.504273C34.0545 0.504273 35.388 1.45819 35.9566 2.81727C36.7408 3.15097 37.389 3.746 37.7939 4.49419C38.8905 5.09777 39.6552 6.23752 39.7418 7.5641H1.46338C1.32519 7.16979 1.25 6.74546 1.25 6.30342Z" fill="#fae120"/>
<ellipse cx="20.25" cy="28.7436" rx="13" ry="13.1111" fill="#ff4a4a"/>
<g opacity="0.65">
<ellipse cx="20.25" cy="28.7436" rx="8.5" ry="8.57265" fill="#333333"/>
<ellipse cx="22.75" cy="32.7778" rx="1.5" ry="1.51282" fill="#ff4a4a"/>
<ellipse cx="24.25" cy="27.2308" rx="1.5" ry="1.51282" fill="#ff4a4a"/>
<ellipse cx="16.25" cy="27.2308" rx="1.5" ry="1.51282" fill="#ff4a4a"/>
<ellipse cx="20.25" cy="23.7009" rx="1.5" ry="1.51282" fill="#ff4a4a"/>
<ellipse cx="17.75" cy="32.7778" rx="1.5" ry="1.51282" fill="#ff4a4a"/>
<ellipse cx="20.5" cy="28.4915" rx="1.25" ry="1.26068" fill="#ff4a4a"/>
<path d="M30.25 36.5598V36.4312C30.1985 36.2153 29.8569 35.8034 28 35.8034C25.4836 35.8034 21 37.0641 21 37.0641L25.5 35.1158C25.5 35.1158 27.7043 34.2906 28.7399 34.2906C29.7754 34.2906 30.25 35.1158 30.25 35.1158V36.4312C30.2683 36.5079 30.25 36.5598 30.25 36.5598Z" fill="#333333"/>
</g>
</svg>
