<svg viewBox="0 0 370 265" fill="none" xmlns="http://www.w3.org/2000/svg">
<path d="M113.25 170.875H112.75V171.375C112.75 199.058 90.3083 221.5 62.625 221.5C34.9417 221.5 12.5 199.058 12.5 171.375C12.5 155.629 19.7599 141.579 31.117 132.389L31.5974 132L31.117 131.611C19.7599 122.421 12.5 108.371 12.5 92.625C12.5 64.9417 34.9417 42.5 62.625 42.5C90.3083 42.5 112.75 64.9417 112.75 92.625V93.125H113.25H255.75H256.25V92.625C256.25 64.9417 278.692 42.5 306.375 42.5C334.058 42.5 356.5 64.9417 356.5 92.625C356.5 108.371 349.24 122.421 337.883 131.611L337.403 132L337.883 132.389C349.24 141.579 356.5 155.629 356.5 171.375C356.5 199.058 334.058 221.5 306.375 221.5C278.692 221.5 256.25 199.058 256.25 171.375V170.875H255.75H113.25Z" fill="#ECE9E9" stroke="#605F5F"/>
</svg>
