<!-- <svg viewBox="0 0 331 345" xmlns="http://www.w3.org/2000/svg" id="config-rules-paw" class="base-paw">
<path d="M158.702 338.048C198.297 361.081 235.679 320.377 249.421 297.145C276.411 296.86 330.353 284.839 330.203 239.032C330.016 181.773 239.443 106.584 164.411 149.904C89.3794 193.223 109.209 309.256 158.702 338.048Z" fill="#ED79BF"/>
<path d="M69.3453 177.208C95.0417 194.712 107.653 226.261 97.5135 247.675C87.374 269.089 58.3234 272.258 32.627 254.754C6.93063 237.249 -5.68071 205.7 4.45877 184.287C14.5983 162.873 43.649 159.704 69.3453 177.208Z" fill="#ED79BF"/>
<path d="M103.094 77.4117C124.765 100.97 129.901 133.775 114.565 150.684C99.2285 167.593 69.2277 162.202 47.5561 138.643C25.8845 115.085 20.7486 82.2797 36.0849 65.3711C51.4211 48.4625 81.4219 53.8533 103.094 77.4117Z" fill="#ED79BF"/>
<path d="M124.972 64.7803C134.538 95.3277 160.38 116.178 182.692 111.351C205.003 106.523 215.335 77.8466 205.769 47.2992C196.202 16.7518 170.36 -4.09851 148.049 0.72876C125.737 5.55603 115.405 34.2329 124.972 64.7803Z" fill="#ED79BF"/>
<path d="M227.573 85.3411C229.884 116.347 250.901 143.043 274.515 144.969C298.13 146.895 315.4 123.321 313.089 92.3149C310.778 61.3091 289.761 34.6127 266.146 32.687C242.532 30.7612 225.262 54.3353 227.573 85.3411Z" fill="#ED79BF"/>
</svg> -->

<svg viewBox="0 0 331 346" fill="none" xmlns="http://www.w3.org/2000/svg" class="base-paw">
    <path d="M158.702 338.048C198.297 361.081 235.679 320.377 249.421 297.145C276.411 296.86 330.353 284.839 330.203 239.032C330.016 181.773 239.443 106.584 164.411 149.904C89.3794 193.223 109.209 309.256 158.702 338.048Z" />
    <path d="M69.3453 177.208C95.0417 194.712 107.653 226.261 97.5135 247.675C87.374 269.089 58.3233 272.258 32.627 254.754C6.93063 237.249 -5.68071 205.7 4.45877 184.287C14.5983 162.873 43.649 159.704 69.3453 177.208Z" />
    <path d="M103.094 77.4118C124.765 100.97 129.901 133.775 114.565 150.684C99.2285 167.593 69.2277 162.202 47.5561 138.643C25.8845 115.085 20.7486 82.2798 36.0849 65.3712C51.4211 48.4626 81.4219 53.8533 103.094 77.4118Z" />
    <path d="M227.573 85.3411C229.884 116.347 250.901 143.043 274.515 144.969C298.13 146.895 315.4 123.321 313.089 92.3149C310.778 61.3091 289.761 34.6128 266.147 32.6871C242.532 30.7613 225.262 54.3353 227.573 85.3411Z" />
    <path d="M124.972 64.7804C134.538 95.3278 160.38 116.178 182.692 111.351C205.003 106.524 215.335 77.8467 205.769 47.2993C196.202 16.7519 170.36 -4.09845 148.049 0.728821C125.737 5.55609 115.405 34.2329 124.972 64.7804Z" />
</svg>

