<!-- <svg viewBox="0 0 331 345" fill="none" xmlns="http://www.w3.org/2000/svg">
    <path opacity="0.5" fill-rule="evenodd" clip-rule="evenodd" d="M133.447 254.56C153.573 272.628 162.521 299.651 153.514 318.675C145.008 336.639 123.193 341.763 101.215 332.614C112.015 334.343 124.787 334.651 136.5 324.5C153.119 310.097 141.607 270.859 133.447 254.56Z" fill="#7C7B7C" fill-opacity="0.9"/>
    <path opacity="0.5" d="M67.6975 291.604C58.9122 270.348 67.6975 237 94.9923 242.451C106.385 244.727 64.2928 268.313 67.6975 291.604Z" fill="#FEFEFE" fill-opacity="0.9"/>
    <path opacity="0.5" fill-rule="evenodd" clip-rule="evenodd" d="M164.61 155.073C181.532 177.825 184.502 206.318 170.565 221.684C161.219 231.989 146.426 234.011 131.391 228.687C144.104 228.143 157.459 222.264 167 204C173.758 191.062 168.782 170.493 164.61 155.073Z" fill="#7C7B7C" fill-opacity="0.9"/>
    <path opacity="0.5" d="M90.0723 170.814C79.6469 141.628 108.456 121.335 128.038 133.006C133.82 136.452 92.431 177.418 90.0723 170.814Z" fill="#FEFEFE"/>
    <path opacity="0.9" d="M100.424 147.672C99.6326 138.44 108.291 130.933 112.543 134.16C113.799 135.112 100.987 154.242 100.424 147.672Z" fill="white"/>
    <path opacity="0.5" fill-rule="evenodd" clip-rule="evenodd" d="M260.423 114.352C259.355 135.102 250.339 162.573 236 172.5C233.234 174.415 230.383 176.414 227.509 178.43C225.935 179.534 224.354 180.643 222.775 181.746C228.105 183.206 233.494 183.475 238.692 182.351C261.003 177.524 271.335 148.847 261.769 118.299C261.351 116.965 260.902 115.648 260.423 114.352Z" fill="#7C7B7C" fill-opacity="0.9"/>
    <path opacity="0.5" d="M185.154 137C167.253 81.357 213 70.4271 213 74.8985C213 85.3315 189.132 94.2741 185.154 137Z" fill="#FEFEFE"/>
    <path opacity="0.9" d="M183.58 120.725C181.208 112.623 185.098 102.305 188.414 103.543C189.393 103.908 185.268 126.491 183.58 120.725Z" fill="white"/>
    <path opacity="0.5" fill-rule="evenodd" clip-rule="evenodd" d="M366.892 149.923C363.876 166.96 358.205 184.611 348.5 195.5C341.616 203.224 327.116 207.111 311.77 209.06C317.587 212.984 323.951 215.434 330.515 215.969C354.13 217.895 371.4 194.321 369.089 163.315C368.747 158.735 367.998 154.249 366.892 149.923Z" fill="#7C7B7C" fill-opacity="0.9"/>
    <path opacity="0.5" d="M288 164C285.5 126 303.349 102.281 322.5 107C333.794 109.783 307 98.4999 288 164Z" fill="#FEFEFE"/>
    <path opacity="0.5" fill-rule="evenodd" clip-rule="evenodd" d="M208.721 405.042C209.807 405.378 210.9 405.698 212 406C255.913 418.054 287.222 373.764 296.991 359.945C298.568 357.714 299.583 356.278 300 356C300.21 355.86 301.252 355.638 302.933 355.28C320.506 351.536 407.887 332.918 344 238L344 236.87C369.22 257.292 386.122 285.33 386.203 310.032C386.353 355.839 332.411 367.86 305.421 368.145C291.679 391.377 254.297 432.081 214.702 409.048C212.656 407.858 210.661 406.519 208.721 405.042Z" fill="#7C7B7C" fill-opacity="0.9"/>
    <path opacity="0.5" d="M194 256C161.089 308.658 188.333 364.667 200 381C179.071 298 284 236 269 217C251 205.667 209 232 194 256Z" fill="#EFEFEF" fill-opacity="0.9"/>
    <path opacity="0.9" d="M228.161 252.206C217.304 265.001 208.121 273.059 215.891 252.206C226.388 224.031 245.161 232.17 228.161 252.206Z" fill="#FEFEFE"/>
</svg> -->

<svg viewBox="0 0 331 346" fill="none" xmlns="http://www.w3.org/2000/svg">
    <path opacity="0.5" fill-rule="evenodd" clip-rule="evenodd" d="M78.4468 181.56C98.5733 199.628 107.521 226.651 98.5135 245.675C90.0076 263.639 68.1933 268.763 46.2151 259.614C57.0146 261.343 69.7866 261.651 81.5 251.5C98.119 237.097 86.6073 197.859 78.4468 181.56Z" fill="#7C7B7C" fill-opacity="0.9"/>
    <path opacity="0.5" d="M12.6973 218.604C3.91206 197.348 12.6973 164 39.9922 169.451C51.3844 171.727 9.29273 195.313 12.6973 218.604Z" fill="#FEFEFE" fill-opacity="0.9"/>
    <path opacity="0.5" fill-rule="evenodd" clip-rule="evenodd" d="M113.135 87.2079C126.879 108.968 128.471 134.455 115.565 148.684C104.734 160.625 86.5902 161.445 69.2309 152.598C124.645 155.174 120.624 112.955 113.135 87.2079Z" fill="#7C7B7C" fill-opacity="0.9"/>
    <path opacity="0.5" d="M35.0722 97.8142C24.6468 68.6278 53.4561 48.3348 73.0375 60.0061C78.8194 63.4523 37.4309 104.418 35.0722 97.8142Z" fill="#FEFEFE"/>
    <path opacity="0.9" d="M45.4239 74.6724C44.6326 65.4399 53.2906 57.9327 57.543 61.1595C58.7986 62.1124 45.9869 81.2422 45.4239 74.6724Z" fill="white"/>
    <path opacity="0.5" fill-rule="evenodd" clip-rule="evenodd" d="M167.304 108.614C172.787 110.189 178.341 110.508 183.692 109.351C205.148 104.708 215.526 78.0091 207.781 48.801C208.493 69.6672 202.722 99.0196 167.304 108.614Z" fill="#7C7B7C" fill-opacity="0.9"/>
    <path opacity="0.5" d="M130.154 63.9999C112.253 8.3571 158 -2.57279 158 1.89855C158 12.3316 134.132 21.2742 130.154 63.9999Z" fill="#FEFEFE"/>
    <path opacity="0.9" d="M128.58 47.7255C126.208 39.6231 130.098 29.3051 133.414 30.5428C134.393 30.9083 130.268 53.4911 128.58 47.7255Z" fill="white"/>
    <path opacity="0.5" fill-rule="evenodd" clip-rule="evenodd" d="M262.123 139.171C266.409 141.277 270.913 142.594 275.515 142.969C299.13 144.895 316.4 121.321 314.089 90.3149C313.804 86.4888 313.234 82.7282 312.409 79.0718C310.755 107.392 300.022 137.611 262.123 139.171Z" fill="#7C7B7C" fill-opacity="0.9"/>
    <path opacity="0.5" d="M233 90.9999C230.5 52.9999 248.349 29.2808 267.5 33.9999C278.794 36.7829 252 25.4999 233 90.9999Z" fill="#FEFEFE"/>
    <path opacity="0.5" fill-rule="evenodd" clip-rule="evenodd" d="M153.721 332.042C154.807 332.378 155.9 332.698 157 333C200.913 345.054 232.222 300.764 241.991 286.945C243.568 284.714 244.583 283.278 245 283C245.21 282.86 246.252 282.638 247.933 282.28C265.506 278.536 352.887 259.918 289 165L289 163.87C314.22 184.292 331.122 212.33 331.203 237.032C331.353 282.839 277.411 294.86 250.421 295.145C236.679 318.377 199.297 359.081 159.702 336.048C157.656 334.858 155.661 333.519 153.721 332.042Z" fill="#7C7B7C" fill-opacity="0.9"/>
    <path opacity="0.5" d="M139 183C106.089 235.658 133.333 291.667 145 308C124.071 225 229 163 214 144C196 132.667 154 159 139 183Z" fill="#EFEFEF" fill-opacity="0.9"/>
    <path opacity="0.9" d="M173.161 179.206C162.304 192.001 153.121 200.059 160.891 179.206C171.388 151.031 190.161 159.17 173.161 179.206Z" fill="#FEFEFE"/>
</svg>






