<svg viewBox="0 0 38 41" fill="none" xmlns="http://www.w3.org/2000/svg">
<ellipse rx="4.37294" ry="5.7434" transform="matrix(0.822058 -0.569403 0.433638 0.901087 6.08537 15.3603)" fill="#FFF7B1"/>
<path opacity="0.5" fill-rule="evenodd" clip-rule="evenodd" d="M10.0714 13.8451C10.9268 16.469 10.3397 19.3139 8.57597 20.5356C6.91046 21.6892 4.72478 21.029 3.25171 19.0989C4.11645 19.8028 5.22762 20.4818 6.7782 20.1823C8.97813 19.7573 9.96118 15.702 10.0714 13.8451Z" fill="#7C7B7C" fill-opacity="0.9"/>
<path opacity="0.5" d="M2.38349 13.7641C2.69113 11.4372 5.16494 8.93818 7.29541 10.8128C8.18463 11.5952 3.26953 11.5319 2.38349 13.7641Z" fill="#FEFEFE" fill-opacity="0.9"/>
<ellipse rx="4.21156" ry="5.91452" transform="matrix(0.952019 -0.306039 0.217973 0.975955 13.7317 7.0612)" fill="#FFF7B1"/>
<path opacity="0.5" fill-rule="evenodd" clip-rule="evenodd" d="M17.8886 6.64251C18.2226 9.51682 17.0332 12.1866 15.0209 12.8335C13.6714 13.2673 12.2632 12.6912 11.2079 11.4535C12.3573 12.0541 13.8351 12.216 15.6072 11.0887C16.8625 10.2901 17.4712 8.2182 17.8886 6.64251Z" fill="#7C7B7C" fill-opacity="0.9"/>
<path opacity="0.5" d="M10.5104 4.23032C11.0773 1.11882 14.6528 0.795352 15.7859 2.82605C16.1205 3.42566 10.3821 4.9343 10.5104 4.23032Z" fill="#FEFEFE"/>
<path opacity="0.9" d="M12.6025 2.71324C13.003 1.85689 14.1493 1.63518 14.3601 2.13736C14.4223 2.28564 12.3176 3.32262 12.6025 2.71324Z" fill="white"/>
<ellipse rx="4.21157" ry="5.91452" transform="matrix(-0.952019 -0.306039 -0.217974 0.975955 24.3243 7.06122)" fill="#FFF7B1"/>
<path opacity="0.5" fill-rule="evenodd" clip-rule="evenodd" d="M28.4162 7.9326C27.265 9.71202 25.0701 11.6799 23.2994 11.8255C22.9578 11.8537 22.6045 11.8849 22.2483 11.9164C22.0531 11.9336 21.8571 11.951 21.6616 11.9679C22.0575 12.369 22.5193 12.6677 23.0351 12.8336C25.2495 13.5454 27.6218 11.5381 28.3338 8.35015C28.3649 8.21085 28.3924 8.0716 28.4162 7.9326Z" fill="#7C7B7C" fill-opacity="0.9"/>
<path opacity="0.5" d="M20.6217 6.0935C21.8767 0.26231 26.4696 1.63062 26.2419 2.0258C25.7104 2.94788 23.1491 2.52034 20.6217 6.0935Z" fill="#FEFEFE"/>
<path opacity="0.9" d="M21.3118 4.57483C21.5153 3.73771 22.3841 3.02428 22.6136 3.30287C22.6814 3.38513 21.1671 5.17051 21.3118 4.57483Z" fill="white"/>
<ellipse rx="4.37294" ry="5.7434" transform="matrix(-0.822058 -0.569404 -0.433638 0.901087 31.9146 15.3149)" fill="#FFF7B1"/>
<path opacity="0.5" fill-rule="evenodd" clip-rule="evenodd" d="M35.9978 16.5092C34.8638 17.861 33.4644 19.1316 32.0535 19.5988C31.0527 19.9301 29.5753 19.5337 28.1221 18.923C28.4355 19.5666 28.8721 20.1078 29.4241 20.4901C31.4094 21.8653 34.1339 20.663 35.5094 17.8048C35.7126 17.3826 35.875 16.9479 35.9978 16.5092Z" fill="#7C7B7C" fill-opacity="0.9"/>
<path opacity="0.5" d="M28.3202 13.7277C30.0353 10.2417 32.8183 9.05611 34.2676 10.4504C35.1223 11.2727 33.333 8.90825 28.3202 13.7277Z" fill="#FEFEFE"/>
<path d="M9.37108 31.6451C11.6912 35.7012 17.0627 34.0111 19.4585 32.6591C21.8543 34.0111 27.2258 35.7012 29.5459 31.6451C32.4461 26.575 28.285 15.308 19.4585 15.308C10.632 15.308 6.47094 26.575 9.37108 31.6451Z" fill="#FFF7B1"/>
<path opacity="0.5" fill-rule="evenodd" clip-rule="evenodd" d="M9.04742 30.9858C9.12611 31.071 9.20626 31.155 9.2879 31.2378C12.5482 34.5439 17.5666 32.2271 19.1324 31.5042C19.3852 31.3876 19.5479 31.3124 19.5989 31.3091C19.6245 31.3075 19.7277 31.341 19.8943 31.3952C21.6355 31.9609 30.2933 34.7743 29.4916 23.1254L29.5491 23.0255C30.734 26.1172 30.797 29.4578 29.5459 31.6451C27.2258 35.7012 21.8542 34.0112 19.4585 32.6591C17.0627 34.0112 11.6912 35.7012 9.37105 31.6451C9.25117 31.4355 9.14335 31.2153 9.04742 30.9858Z" fill="#7C7B7C" fill-opacity="0.9"/>
<path opacity="0.5" d="M15.3405 17.0622C9.75454 20.0368 9.30528 26.3771 9.50261 28.416C11.884 20.0124 24.2998 19.887 23.9442 17.4424C22.9334 15.5222 17.8865 15.7065 15.3405 17.0622Z" fill="#EFEFEF" fill-opacity="0.9"/>
<path opacity="0.9" d="M18.5478 18.47C16.9381 19.0468 15.7175 19.2905 17.4652 17.8439C19.8265 15.8894 21.0682 17.5667 18.5478 18.47Z" fill="#FEFEFE"/>
</svg>
