<svg viewBox="0 0 84 35" fill="none" xmlns="http://www.w3.org/2000/svg">
<mask id="path-1-outside-1" maskUnits="userSpaceOnUse" x="0" y="0" width="84" height="35" fill="black">
<rect fill="white" width="84" height="35"/>
<path fill-rule="evenodd" clip-rule="evenodd" d="M71.4343 2L42.5694 26.054L13.7046 2H6L42 32L78 2H71.4343Z"/>
</mask>
<path fill-rule="evenodd" clip-rule="evenodd" d="M71.4343 2L42.5694 26.054L13.7046 2H6L42 32L78 2H71.4343Z" fill="#FDE6F4"/>
<path d="M42.5694 26.054L41.2891 27.5905L42.5694 28.6575L43.8498 27.5905L42.5694 26.054ZM71.4343 2V0H70.7102L70.1539 0.463557L71.4343 2ZM13.7046 2L14.985 0.463557L14.4287 0H13.7046V2ZM6 2V0H0.4759L4.71963 3.53644L6 2ZM42 32L40.7196 33.5364L42 34.6034L43.2804 33.5364L42 32ZM78 2L79.2804 3.53644L83.5241 0H78V2ZM43.8498 27.5905L72.7147 3.53644L70.1539 0.463557L41.2891 24.5176L43.8498 27.5905ZM12.4242 3.53644L41.2891 27.5905L43.8498 24.5176L14.985 0.463557L12.4242 3.53644ZM13.7046 0H6V4H13.7046V0ZM4.71963 3.53644L40.7196 33.5364L43.2804 30.4636L7.28037 0.463557L4.71963 3.53644ZM43.2804 33.5364L79.2804 3.53644L76.7196 0.463557L40.7196 30.4636L43.2804 33.5364ZM78 0H71.4343V4H78V0Z" fill="#FFF7B2" mask="url(#path-1-outside-1)"/>
</svg>
